<?xml version="1.0" standalone="no"?>
<!DOCTYPE svg PUBLIC "-//W3C//DTD SVG 1.1//EN" "http://www.w3.org/Graphics/SVG/1.1/DTD/svg11.dtd" >
<!--
2013-9-30: Created.
-->
<svg>
<metadata>
Created by iconfont
</metadata>
<defs>

<font id="iconfont" horiz-adv-x="1024" >
  <font-face
    font-family="iconfont"
    font-weight="500"
    font-stretch="normal"
    units-per-em="1024"
    ascent="896"
    descent="-128"
  />
    <missing-glyph />
    
    <glyph glyph-name="guanbi" unicode="&#58972;" d="M636.226641 385.483761l290.305586 290.305586c21.795943 21.795943 25.582093 53.517738 8.288598 70.708904l-63.341261 63.341261c-17.191166 17.191166-48.810633 13.405016-70.708904-8.390926L510.567403 511.143 220.261817 801.448586c-21.795943 21.795943-53.517738 25.582093-70.708904 8.390926l-63.341261-63.341261c-17.191166-17.191166-13.507345-48.912961 8.390926-70.708904l290.305586-290.305586L94.704907 95.178175c-21.795943-21.795943-25.582093-53.415409-8.390926-70.708904l63.341261-63.341261c17.191166-17.191166 48.912961-13.507345 70.708904 8.288598l290.305586 290.305586 290.203258-290.305586c21.898271-21.898271 53.517738-25.582093 70.708904-8.390926l63.341261 63.341261c17.191166 17.191166 13.507345 48.912961-8.288598 70.708904L636.226641 385.483761 636.226641 385.483761z"  horiz-adv-x="1024" />

    
    <glyph glyph-name="duigou" unicode="&#58880;" d="M1006.191304 896C676.730435 651.130435 543.165217 517.5652170000001 329.46087 165.843478l-218.156522 235.965218L0 286.05217400000004 382.886957-128S565.426087 357.28695700000003 1024 806.956522c0 0-13.356522 75.686957-17.808696 89.043478z"  horiz-adv-x="1024" />

    
    <glyph glyph-name="right" unicode="&#58881;" d="M256 896v-268.8l243.2-243.2L256 140.79999999999995v-268.8l512 512z"  horiz-adv-x="1024" />

    
    <glyph glyph-name="left" unicode="&#58882;" d="M768 896v-268.8L524.8 384l243.2-243.2v-268.8L256 384z"  horiz-adv-x="1024" />

    
    <glyph glyph-name="edit" unicode="&#58883;" d="M277.447415 151.27272700000003l211.736186 58.409982-153.326203 153.326204zM868.848485 742.673797C671.714795 939.807487 343.158645 939.807487 146.024955 742.673797S-51.108734 216.98395700000003 146.024955 19.85026700000003s525.68984-197.13369 722.82353 0c204.434938 204.434938 204.434938 525.68984 0 722.82353z m-664.413547-664.413547C36.506239 246.18894799999998 36.506239 523.636364 204.434938 698.86631c146.024955 146.024955 365.062389 167.928699 532.991087 65.71123L379.664884 414.117647l153.326203-153.326203L890.752228 603.9500889999999c102.217469-167.928699 80.313725-386.966132-65.71123-532.991087-175.229947-167.928699-452.677362-167.928699-620.60606 7.301248z"  horiz-adv-x="1331" />

    
    <glyph glyph-name="pc" unicode="&#58884;" d="M1068.521739 896H44.521739C22.26087 896 0 873.73913 0 851.478261v-756.869565c0-22.26087 22.26087-44.521739 44.521739-44.521739h1024c22.26087 0 44.521739 22.26087 44.521739 44.521739V851.478261c0 22.26087-22.26087 44.521739-44.521739 44.521739z m-431.860869-788.034783h-160.278261c-17.808696 0-31.165217 13.356522-31.165218 31.165218s13.356522 31.165217 31.165218 31.165217h160.278261c17.808696 0 31.165217-13.356522 31.165217-31.165217s-13.356522-31.165217-31.165217-31.165218zM1024 228.173913H89.043478V806.956522h934.956522v-578.782609zM756.869565-128H356.173913c-22.26087 0-44.521739 17.808696-44.521739 44.521739 0 22.26087 17.808696 44.521739 44.521739 44.521739h400.695652c22.26087 0 44.521739-17.808696 44.521739-44.521739s-17.808696-44.521739-44.521739-44.521739z"  horiz-adv-x="1113" />

    
    <glyph glyph-name="ph" unicode="&#58885;" d="M789.333333 896H234.666667C209.066667 896 192 874.666667 192 853.333333v-938.666666c0-21.333333 17.066667-42.666667 42.666667-42.666667h554.666666c21.333333 0 42.666667 21.333333 42.666667 42.666667V853.333333c0 21.333333-21.333333 42.666667-42.666667 42.666667zM460.8 866.133333h102.4c8.533333 0 12.8-4.266667 12.8-12.8 0-8.533333-4.266667-12.8-12.8-12.8H460.8c-8.533333 0-12.8 4.266667-12.8 12.8 0 8.533333 4.266667 12.8 12.8 12.8zM512-85.333333c-25.6 0-42.666667 17.066667-42.666667 42.666666s17.066667 42.666667 42.666667 42.666667 42.666667-17.066667 42.666667-42.666667-17.066667-42.666667-42.666667-42.666666z m277.333333 128H234.666667V810.666667h554.666666v-768z"  horiz-adv-x="1024" />

    
    <glyph glyph-name="tips" unicode="&#58886;" d="M649.794275 877.14071L248.61694 615.339538H51.481286C23.229361 615.339538 0 592.110178 0 563.230432v-355.346435c0-28.251925 23.229361-51.481286 51.481286-51.481285h187.718346l410.594643-268.079378c53.364747-34.530131 96.684366-11.30077 96.684366 52.109107V825.031604c0 63.409876-43.947439 87.267057-96.684366 52.109106zM1196.62598 327.169903h-224.759759c-32.646669 0-59.015132 26.368463-59.015133 59.015132s26.368463 59.015132 59.015133 59.015133h224.759759c32.646669 0 59.015132-26.368463 59.015132-59.015133s-26.368463-59.015132-59.015132-59.015132zM1050.34379-109.165383L870.787111 48.417576c-23.229361 20.718078-25.740643 55.876029-5.022564 79.10539 20.718078 23.229361 55.876029 25.740643 79.10539 5.022565l179.556679-158.21078c23.229361-20.718078 25.740643-55.876029 5.022564-79.10539-20.718078-22.60154-55.876029-25.112822-79.10539-4.394744zM1050.34379 882.163274l-179.556679-158.21078c-23.229361-20.718078-25.740643-55.876029-5.022564-79.10539 20.718078-23.229361 55.876029-25.740643 79.10539-5.022564l179.556679 158.21078c23.229361 20.718078 25.740643 55.876029 5.022564 79.10539-20.718078 23.229361-55.876029 25.112822-79.10539 5.022564z"  horiz-adv-x="1255" />

    
    <glyph glyph-name="free" unicode="&#58887;" d="M690.656453 271.851205c17.905908 0 35.811816 7.673961 51.159738 23.021882s23.021882 28.137856 23.021881 51.159737v79.297593c0 17.905908-7.673961 35.811816-23.021881 51.159737s-28.137856 23.021882-51.159738 23.021882h-10.231947l35.811816 86.971553c2.557987 7.673961 2.557987 15.347921-2.557987 17.905908-2.557987 7.673961-10.231947 10.231947-17.905908 10.231948H327.422319l10.231947 28.137855c2.557987 10.231947 0 23.021882-10.231947 28.137856-10.231947 0-23.021882-7.673961-25.579869-17.905908l-25.579869-58.833698c-2.557987-15.347921 7.673961-33.253829 23.021882-33.253829H665.076585L631.822755 486.722102H317.190371c-17.905908 0-35.811816-7.673961-51.159737-23.021882-15.347921-15.347921-23.021882-28.137856-23.021882-51.159737V333.24289c0-17.905908 7.673961-35.811816 23.021882-51.159737 15.347921-7.673961 33.253829-15.347921 51.159737-15.347922h125.341357s-176.501094-125.341356-212.31291-143.247264c-10.231947-2.557987-15.347921-17.905908-10.231948-28.137856 7.673961-7.673961 10.231947-10.231947 17.905908-10.231947 2.557987 0 10.231947 0 15.347922 2.557987 35.811816 17.905908 245.566739 181.617067 245.566739 181.617067H690.656453v2.557987z m-173.943106 176.501094H690.656453c7.673961 0 15.347921-2.557987 17.905908-7.673961 2.557987-2.557987 7.673961-10.231947 7.673961-17.905908v-79.297593c0-7.673961-2.557987-15.347921-7.673961-17.905908-2.557987-2.557987-10.231947-7.673961-17.905908-7.67396h-171.38512v130.45733z m-46.043764-130.45733h-153.479212c-7.673961 0-15.347921 2.557987-17.905908 7.67396-2.557987 2.557987-7.673961 10.231947-7.67396 17.905908v79.297593c0 7.673961 2.557987 15.347921 7.67396 17.905908 2.557987 7.673961 10.231947 7.673961 17.905908 7.673961h156.037199l-2.557987-130.45733zM772.512033 131.161928h-202.080962c-10.231947 0-17.905908 2.557987-28.137856 10.231947-7.673961 7.673961-10.231947 17.905908-10.231947 25.579869v43.485776c0 10.231947-10.231947 23.021882-23.021882 23.021882-10.231947 0-23.021882-10.231947-23.021882-23.021882v-43.485776c0-10.231947 2.557987-23.021882 7.673961-33.25383 10.231947-17.905908 23.021882-35.811816 43.485777-43.485776 10.231947-2.557987 23.021882-7.673961 33.253829-7.673961h202.080962c10.231947 0 23.021882 10.231947 23.021882 23.021882s-10.231947 25.579869-23.021882 25.579869zM872.273521 747.636762c-194.407002 194.407002-511.597373 196.964989-708.562362 10.231947-194.407002-179.059081-214.870897-470.669583-61.391684-675.308532 7.673961-7.673961 17.905908-10.231947 28.137855-2.557987 7.673961 7.673961 7.673961 17.905908 0 25.579869C-12.789934 299.989061 10.231947 581.367616 199.522975 747.636762c176.501094 153.479212 442.531728 153.479212 621.590808 0 212.31291-181.617067 219.98687-503.923412 25.579869-698.330414-168.827133-168.827133-432.29978-181.617067-619.032821-48.601751-7.673961 2.557987-17.905908 2.557987-25.579869 0-7.673961-7.673961-7.673961-23.021882 2.557987-28.137855 202.080962-150.921225 483.459517-130.45733 665.076585 51.159737 204.638949 196.964989 204.638949 524.387307 2.557987 723.910283zM143.413063 19.471445a17.905908 17.905908 0 1 1 25.317474 25.328081 17.905908 17.905908 0 1 1-25.317474-25.328081Z"  horiz-adv-x="1024" />

    
    <glyph glyph-name="module" unicode="&#58888;" d="M947.391521 821.945137v-875.890274H510.723192V821.945137h436.668329m0 74.054863H510.723192c-40.857855 0-74.054863-33.197007-74.054863-74.054863v-875.890274c0-40.857855 33.197007-74.054863 74.054863-74.054863h436.668329c40.857855 0 74.054863 33.197007 74.054863 74.054863V821.945137C1021.446384 862.802993 988.249377 896 947.391521 896zM145.55611 203.970075H74.054863V566.583541h74.054863V640.638404H74.054863C33.197007 640.638404 0 607.441397 0 566.583541v-365.167082C0 163.112219 33.197007 129.915212 74.054863 129.915212h74.054863v74.054863zM365.167082 55.860349h-74.054863V714.693267h74.054863V786.194514h-74.054863c-40.857855 0-74.054863-33.197007-74.054862-74.054863v-656.279302c0-40.857855 33.197007-74.054863 74.054862-74.054863h74.054863v74.054863z"  horiz-adv-x="1024" />

    
    <glyph glyph-name="pay" unicode="&#58889;" d="M970.865787 431.802835h-70.3134v124.40063c0 56.791592-45.974146 108.174461-108.174461 108.174461h-10.817446L692.31655 883.431209c0 8.113085-10.817446 16.226169-24.339254 10.817446l-567.91592-232.57509c-54.08723-2.704362-100.061376-51.382869-100.061376-108.174461v-573.324643c0-56.791592 45.974146-108.174461 108.174461-108.174461h689.612188c56.791592 0 108.174461 45.974146 108.174461 108.174461v124.40063H973.570148c56.791592 0 108.174461 45.974146 108.174461 108.174461V326.332736c-2.704362 59.495953-51.382869 105.470099-110.878822 105.470099zM662.568573 799.596002l56.791592-137.922437H265.027429L635.524958 813.11781c10.817446 2.704362 21.634892 0 27.043615-13.521808z m181.192222-819.421541c0-27.043615-18.930531-45.974146-45.974146-45.974146H108.174461c-27.043615 0-45.974146 18.930531-45.974146 45.974146V553.499104c0 27.043615 18.930531 45.974146 45.974146 45.974146h689.612188c27.043615 0 45.974146-18.930531 45.974146-45.974146v-124.40063h-124.40063c-56.791592 0-108.174461-45.974146-108.174461-108.174461v-116.287546c0-56.791592 45.974146-108.174461 108.174461-108.174461h124.40063v-116.287545z m173.079137 232.575091c0-27.043615-18.930531-45.974146-45.974145-45.974146h-254.209984c-27.043615 0-45.974146 18.930531-45.974145 45.974146V326.332736c0 27.043615 18.930531 45.974146 45.974145 45.974146h254.209984c27.043615 0 45.974146-18.930531 45.974145-45.974146v-113.583184zM770.743034 269.541144m-37.861061 0a37.861061 37.861061 0 1 1 75.722122 0 37.861061 37.861061 0 1 1-75.722122 0ZM219.053283 12.626799c-43.269784 0-75.722123 35.1567-75.722122 75.722123v229.870729c0 10.817446-8.113085 18.930531-18.930531 18.930531-10.817446 0-18.930531-8.113085-18.930531-18.930531v-229.870729c0-64.904677 51.382869-116.287545 116.287546-116.287546 10.817446 0 18.930531 8.113085 18.93053 18.930531-2.704362 8.113085-10.817446 21.634892-21.634892 21.634892zM297.479767-6.303731m-18.93053 0a18.930531 18.930531 0 1 1 37.861061 0 18.930531 18.930531 0 1 1-37.861061 0Z"  horiz-adv-x="1083" />

    
    <glyph glyph-name="seo" unicode="&#58890;" d="M512 837.12c248.32 0 453.12-204.8 453.12-453.12s-204.8-453.12-453.12-453.12S58.88 135.68 58.88 384 263.68 837.12 512 837.12M512 896C230.4 896 0 665.6 0 384s230.4-512 512-512 512 230.4 512 512S793.6 896 512 896zM527.36 675.84c-84.48 84.48-220.16 84.48-307.2 0s-84.48-222.72 0-307.2c79.36-79.36 207.36-84.48 291.84-10.24l33.28-33.28c-7.68-15.36-2.56-33.28 10.24-48.64l181.76-181.76c17.92-17.92 43.52-17.92 61.44 0s17.92 43.52 0 61.44l-181.76 181.76c-10.24 10.24-28.16 15.36-48.64 10.24L537.6 384c74.24 84.48 69.12 212.48-10.24 291.84zM253.44 399.36c-69.12 69.12-69.12 179.2 0 245.76s179.2 66.56 245.76 0 66.56-179.2 0-245.76-181.76-66.56-245.76 0zM366.08 663.04c-53.76 0-102.4-43.52-102.4-102.4 0-53.76 102.4-138.24 102.4-138.24s102.4 79.36 102.4 138.24-48.64 102.4-102.4 102.4z m0-143.36c-28.16 0-53.76 25.6-53.76 53.76s25.6 53.76 53.76 53.76 53.76-25.6 53.76-53.76-25.6-53.76-53.76-53.76zM366.08 401.92c25.6 0 51.2-10.24 69.12-25.6-10.24 25.6-35.84 43.52-69.12 43.52s-58.88-17.92-69.12-43.52c17.92 15.36 43.52 25.6 69.12 25.6z"  horiz-adv-x="1024" />

    
    <glyph glyph-name="share" unicode="&#58891;" d="M51.2 25.6c0 197.12 161.28 358.4 358.4 358.4 138.24 0 263.68-79.36 322.56-202.24h53.76c-48.64 110.08-138.24 194.56-256 230.4 79.36 43.52 135.68 128 135.68 222.72 0 143.36-112.64 256-256 256S153.6 778.24 153.6 637.44c0-99.84 53.76-179.2 135.68-222.72C120.32 360.96 0 207.36 0 25.6v-153.6h424.96v51.2H51.2v102.4z m153.6 614.4c0 112.64 92.16 204.8 204.8 204.8s204.8-92.16 204.8-204.8-92.16-204.8-204.8-204.8-204.8 92.16-204.8 204.8zM768 417.28c79.36 43.52 135.68 128 135.68 222.72 0 130.56-99.84 240.64-227.84 256-15.36 0-28.16-10.24-28.16-25.6s10.24-25.6 23.04-25.6c102.4-10.24 181.76-99.84 181.76-204.8 0-76.8-43.52-143.36-104.96-179.2-17.92-10.24-28.16-25.6-28.16-43.52 0-23.04 15.36-43.52 35.84-51.2 94.72-28.16 171.52-94.72 212.48-181.76H1024c-48.64 107.52-138.24 197.12-256 232.96zM885.76-2.56c-10.24 0-17.92-2.56-25.6-5.12 0 0-2.56 0-2.56-2.56-2.56-2.56-5.12-2.56-7.68-5.12-2.56 0-2.56-2.56-5.12-5.12l-5.12-5.12-76.8 46.08v12.8 2.56 7.68c0 2.56 0 5.12-2.56 5.12l76.8 43.52c10.24-17.92 30.72-28.16 51.2-28.16 33.28 0 61.44 28.16 61.44 61.44 0 7.68-2.56 17.92-5.12 25.6-10.24 23.04-33.28 38.4-56.32 38.4-35.84 0-61.44-28.16-61.44-61.44 0-5.12 0-12.8 2.56-17.92l-76.8-43.52-7.68 7.68-5.12 5.12c-2.56 2.56-5.12 2.56-7.68 5.12 0 0-2.56 0-2.56 2.56-7.68 5.12-17.92 7.68-28.16 7.68-33.28 0-61.44-28.16-61.44-61.44 0-10.24 2.56-17.92 5.12-25.6v-2.56c2.56-2.56 2.56-5.12 5.12-7.68 2.56-2.56 2.56-5.12 5.12-5.12l2.56-2.56 5.12-5.12 2.56-2.56c2.56 0 2.56-2.56 5.12-2.56s5.12-2.56 7.68-2.56h2.56c7.68-2.56 15.36-5.12 23.04-5.12 5.12 0 10.24 0 15.36 2.56h2.56c12.8 2.56 23.04 10.24 30.72 17.92l5.12 5.12 76.8-43.52c0-2.56-2.56-5.12-2.56-7.68v-10.24c0-35.84 28.16-61.44 61.44-61.44 20.48 0 38.4 10.24 48.64 23.04 7.68 10.24 12.8 23.04 12.8 38.4-7.68 33.28-35.84 61.44-69.12 61.44z"  horiz-adv-x="1024" />

    
    <glyph glyph-name="terminal" unicode="&#58892;" d="M1009.536723 710.870056H809.943503c-83.887006 0-147.525424-66.531073-147.525424-147.525423v-540.926554c0-83.887006 66.531073-147.525424 147.525424-147.525424h199.59322c83.887006 0 147.525424 66.531073 147.525424 147.525424V560.451977c0 83.887006-66.531073 150.418079-147.525424 150.418079z m98.350283-691.344632H714.485876V560.451977h393.40113v-540.926553zM17.355932 227.79661V826.576271c0 26.033898 20.248588 46.282486 46.282486 46.282486h798.372881c26.033898 0 46.282486-20.248588 46.282486-46.282486v-69.423729h17.355933V849.717514c0 26.033898-20.248588 46.282486-46.282486 46.282486H46.282486C20.248588 896 0 875.751412 0 849.717514v-694.237288c0-26.033898 20.248588-46.282486 46.282486-46.282486h376.045198c11.570621 0 20.248588-8.677966 20.248587-20.248587V28.20339c0-11.570621-8.677966-20.248588-20.248587-20.248588H185.129944c-11.570621 0-26.033898-11.570621-26.033899-26.033898 0-11.570621 11.570621-26.033898 26.033899-26.033898h433.898305v46.282486h-115.706215c-11.570621 0-20.248588 8.677966-20.248588 20.248587v66.531074c0 11.570621 8.677966 20.248588 20.248588 20.248587h115.706215v69.423729H66.531073c-26.033898-2.892655-49.175141 23.141243-49.175141 49.175141z"  horiz-adv-x="1157" />

    
    <glyph glyph-name="pause" unicode="&#58893;" d="M923.733333 460.8L185.6 883.2C130.133333 917.333333 57.6 874.666667 57.6 810.666667v-849.066667c0-64 72.533333-106.666667 128-72.533333l738.133333 426.666666c55.466667 29.866667 55.466667 110.933333 0 145.066667z"  horiz-adv-x="1024" />

    
    <glyph glyph-name="plays" unicode="&#58894;" d="M388.4-128H207.6c-20.8 0-37.6 16.8-37.6 37.6V858.4C170 879.2 186.8 896 207.6 896h180.8C409.2 896 426 879.2 426 858.4v-948.8c0-20.8-16.8-37.6-37.6-37.6zM816-128h-180.8c-20.8 0-37.6 16.8-37.6 37.6V858.4c0 20.8 16.8 37.6 37.6 37.6h180.8c20.8 0 37.6-16.8 37.6-37.6v-948.8c0.4-20.8-16.8-37.6-37.6-37.6z"  horiz-adv-x="1024" />

    
    <glyph glyph-name="full" unicode="&#58895;" d="M630.153846 896v-39.384615h354.461539v-354.461539h39.384615V896zM39.384615-88.615385v354.461539H0v-393.846154h393.846154v39.384615zM984.615385 265.846154v-354.461539h-354.461539v-39.384615h393.846154V265.846154zM0 502.153846h39.384615V856.615385h354.461539V896H0z"  horiz-adv-x="1024" />

    
    <glyph glyph-name="zuma" unicode="&#58896;" d="M579.297581 761.404837c50.607781 0 99.06204-8.61409 144.286015-23.688749v24.76551c0 60.298633 49.53102 109.829653 109.829653 109.829653h202.431125c12.921136 15.074658 32.302839 23.688749 52.761304 23.688749 38.763407 0 71.066246-31.226078 71.066246-71.066246 0-38.763407-31.226078-71.066246-71.066246-71.066246-21.535226 0-39.840168 9.690852-52.761304 23.688749H856.025237c-22.611987 0-40.91693-18.304942-40.91693-40.91693v-43.070452c125.981073-78.603575 208.891693-218.582545 208.891693-376.866456 0-245.501577-199.200841-444.702419-444.702419-444.702419-245.501577 0-444.702419 199.200841-444.702418 444.702419 0 159.360673 83.987382 298.262881 208.891693 376.866456v43.070452c0 22.611987-18.304942 40.91693-40.91693 40.91693H123.82755c-12.921136-15.074658-32.302839-23.688749-52.761304-23.688749-39.840168 1.076761-71.066246 32.302839-71.066246 71.066246C0 864.773922 31.226078 896 71.066246 896c21.535226 0 39.840168-9.690852 52.761304-23.688749h202.431125c60.298633 0 109.829653-49.53102 109.829653-109.829653v-24.76551c45.223975 15.074658 93.678233 23.688749 143.209253 23.688749m269.190326-465.160883H764.500526c-10.767613-92.601472-89.371188-163.667718-185.202945-163.667718-95.831756 0-174.435331 72.143007-185.202944 163.667718h-85.064143c11.844374-138.902208 128.134595-248.731861 270.267087-248.731861 141.055731 0 258.422713 109.829653 269.190326 248.731861m-269.190326 380.09674c-198.12408 0-359.638275-160.437434-359.638275-359.638275 0-198.12408 161.514196-359.638275 359.638275-359.638276s359.638275 161.514196 359.638276 359.638276c0 199.200841-160.437434 359.638275-359.638276 359.638275M1259.810726-56.933754c-8.61409 0-11.844374 13.997897-4.307046 21.535226 6.460568 7.537329 102.292324 115.21346 102.292324 115.21346h-95.831756s-10.767613 0-10.767613 12.921135c0 10.767613 10.767613 10.767613 10.767613 10.767613h115.21346c18.304942 0 21.535226-13.997897 11.844374-24.76551-9.690852-10.767613-101.215563-115.21346-101.215563-115.213459l113.059937-1.076761s9.690852 1.076761 9.690852-9.690852-8.61409-9.690852-8.61409-9.690852H1259.810726zM1820.803365-44.012618s-1.076761-11.844374-9.690852-11.844375-10.767613 0-12.921136 3.230284-2.153523 9.690852-2.153522 9.690852c-5.383807-1.076761-10.767613-2.153523-16.15142-4.307045-6.460568-1.076761-11.844374-3.230284-17.228181-4.307045-5.383807-1.076761-11.844374-2.153523-17.22818-3.230284-5.383807-1.076761-24.76551-1.076761-27.995794-1.076762-19.381703 0-32.302839 4.307045-40.91693 13.997897-7.537329 9.690852-11.844374 23.688749-11.844374 41.993691v89.371188s2.153523 12.921136 13.997897 12.921136c12.921136 0 12.921136-12.921136 12.921135-12.921136v-94.754994c0-5.383807 0-9.690852 1.076762-13.997897s2.153523-7.537329 4.307045-9.690852c2.153523-2.153523 5.383807-4.307045 8.61409-5.383807 4.307045-1.076761 19.381703-2.153523 26.919033-2.153522 4.307045 0 8.61409 1.076761 13.997897 1.076761 5.383807 1.076761 8.61409 1.076761 15.074658 3.230284 6.460568 1.076761 11.844374 2.153523 18.304942 3.230284 6.460568 1.076761 11.844374 2.153523 16.15142 2.153523V94.88959s1.076761 8.61409 11.844374 8.61409 11.844374-8.61409 11.844375-8.61409v-138.902208zM2310.729758-47.242902v101.215562c0 5.383807-1.076761 9.690852-2.153522 13.997897-1.076761 3.230284-3.230284 6.460568-6.460568 8.614091-3.230284 2.153523-6.460568 4.307045-11.844375 4.307045-4.307045 1.076761-10.767613 1.076761-17.22818 1.076761-2.153523 0-5.383807 0-8.614091-1.076761-3.230284-1.076761-7.537329-2.153523-11.844374-3.230284-4.307045-1.076761-8.61409-3.230284-12.921136-4.307045-4.307045-1.076761-10.767613-3.230284-13.997897-4.307045v-114.136699s0-10.767613-11.844374-10.767613c-10.767613 0-11.844374 10.767613-11.844375 10.767613v100.138802c0 5.383807 0 9.690852-1.076761 13.997897-1.076761 3.230284-2.153523 6.460568-5.383806 8.61409-2.153523 2.153523-4.307045 4.307045-8.614091 4.307045-4.307045 1.076761-9.690852 1.076761-17.228181 1.076762-2.153523 0-5.383807 0-8.61409-1.076762-3.230284-1.076761-7.537329-2.153523-11.844374-3.230284-4.307045-1.076761-9.690852-3.230284-13.997897-4.307045-4.307045-1.076761-11.844374-3.230284-15.074659-3.230284v-115.213459s0-10.767613-11.844374-10.767613-11.844374 10.767613-11.844374 10.767613v139.978969c0 3.230284 2.153523 7.537329 10.767613 7.537329s10.767613-3.230284 10.767613-4.307045c0-1.076761 2.153523-8.61409 2.153522-8.61409 4.307045 1.076761 11.844374 3.230284 17.228181 4.307045 5.383807 2.153523 10.767613 3.230284 16.15142 5.383806s9.690852 3.230284 15.074658 4.307046c4.307045 1.076761 8.61409 2.153523 11.844374 2.153522 9.690852 0 18.304942-2.153523 24.76551-5.383806 6.460568-3.230284 11.844374-7.537329 16.15142-12.921136 5.383807 1.076761 10.767613 3.230284 16.151419 5.383807s11.844374 4.307045 17.228181 6.460567c5.383807 2.153523 10.767613 3.230284 16.15142 4.307046 5.383807 1.076761 8.61409 2.153523 11.844374 2.153522 19.381703 0 32.302839-4.307045 39.840168-13.997897 7.537329-9.690852 11.844374-23.688749 11.844375-41.993691v-95.831756s0-9.690852-11.844375-9.690851c-11.844374-2.153523-11.844374 7.537329-11.844374 7.537329zM2703.747634-46.166141c-4.307045-2.153523-5.383807-3.230284-9.690852-4.307045-3.230284-2.153523-6.460568-2.153523-10.767613-4.307045-3.230284-1.076761-6.460568-2.153523-9.690851-2.153523h-26.919033c-11.844374 0-21.535226 2.153523-29.072555 6.460568-6.460568 4.307045-11.844374 8.61409-15.074658 13.997897-3.230284 5.383807-5.383807 8.61409-6.460568 13.997897-1.076761 5.383807-1.076761 7.537329-1.076762 9.690852V-8.479495v8.61409c0 4.307045 1.076761 8.61409 4.307046 13.997897 3.230284 5.383807 7.537329 10.767613 15.074658 15.074658 6.460568 4.307045 18.304942 9.690852 31.226078 10.767613l69.989484 1.076762-1.076761 13.997897c0 3.230284 0 5.383807-2.153522 9.690851-1.076761 3.230284-2.153523 5.383807-5.383807 8.614091-2.153523 2.153523-5.383807 4.307045-9.690852 7.537329-3.230284 2.153523-6.460568 3.230284-13.997897 4.307045-4.307045 0-9.690852 1.076761-17.228181 1.076761-6.460568 0-11.844374 0-19.381703-1.076761s-16.15142-1.076761-23.688749-2.153522c-3.230284 0-7.537329-1.076761-9.690851-1.076762-2.153523 0-7.537329 1.076761-9.690852 7.537329-1.076761 7.537329 3.230284 8.61409 3.230284 8.614091 5.383807 1.076761 11.844374 2.153523 19.381703 4.307045 7.537329 1.076761 9.690852 1.076761 17.228181 2.153523 7.537329 1.076761 12.921136 1.076761 20.458465 1.076761 6.460568 1.076761 16.15142 0 19.381703 0 19.381703-1.076761 32.302839-6.460568 39.840169-16.15142 7.537329-9.690852 15.074658-18.304942 15.074658-44.147213v-93.678234s-1.076761-7.537329-11.844375-7.537329-11.844374 7.537329-11.844374 7.537329v8.614091m-2.153522 63.528917l-59.221872-7.537329c-10.767613-1.076761-19.381703-4.307045-24.76551-8.614091-5.383807-4.307045-7.537329-10.767613-7.537329-18.304942s2.153523-13.997897 7.537329-19.381703c5.383807-5.383807 13.997897-7.537329 24.76551-7.537329h18.304942c6.460568 0 12.921136 1.076761 17.228181 4.307045 5.383807 3.230284 9.690852 6.460568 12.921135 11.844374 3.230284 4.307045 5.383807 9.690852 7.53733 16.15142 2.153523 5.383807 2.153523 10.767613 2.153522 16.151419V23.823344zM1434.246057 804.475289c1.076761-6.460568 0-1.076761 0-47.377497h93.678233c4.307045 0 20.458465-1.076761 20.458465-21.535226 0-19.381703-16.15142-22.611987-20.458465-22.611988H1356.719243v-105.522607h86.140904c41.993691 0 68.912723-19.381703 82.910621-57.06835 2.153523-11.844374 3.230284-19.381703 3.230284-25.842271v-244.424816c0-39.840168-19.381703-63.528917-59.221872-76.450052-12.921136-2.153523-23.688749-3.230284-31.226078-3.230284h-21.535226c-4.307045 0-7.537329 1.076761-10.767613 4.307045 0 0-6.460568 6.460568-6.460568 17.228181s6.460568 16.15142 6.460568 16.151419c3.230284 3.230284 7.537329 5.383807 10.767613 5.383807h30.149316c20.458465 2.153523 31.226078 7.537329 31.226078 26.919032V527.747634c-2.153523 19.381703-11.844374 27.995794-31.226078 27.995794H1356.719243c-10.767613-180.895899-43.070452-328.412198-59.221872-351.024185-15.074658-8.61409-45.223975-6.460568-41.993691 18.304942 3.230284 24.76551 48.454259 159.360673 47.377498 395.171399V712.950578h-22.611988c-4.307045 0-22.611987 6.460568-22.611987 21.535226s16.15142 21.535226 22.611987 21.535226h104.445847s1.076761 41.993691 1.076761 47.377498c0 7.537329 9.690852 17.228181 24.76551 17.228181 18.304942 0 23.688749-16.15142 23.688749-16.15142zM1612.988433 663.419558c3.230284 4.307045 11.844374 7.537329 21.535226 7.537329 11.844374 0 22.611987-8.61409 22.611988-13.997896 0-4.307045-1.076761-16.15142-6.460568-41.993691h273.497371c2.153523 0 12.921136-4.307045 12.921136-20.458465 0-17.228181-11.844374-22.611987-12.921136-22.611987h-155.053628v-90.44795l-3.230284-23.688749h164.74448c5.383807 0 17.228181-5.383807 17.228181-20.458464 0-19.381703-11.844374-23.688749-17.228181-23.688749h-136.748686c0-2.153523 41.993691-40.91693 136.748686-173.35857 1.076761-2.153523 8.61409-16.15142-5.383807-30.149317-7.537329-5.383807-21.535226-5.383807-31.226077 1.076762-3.230284 2.153523-38.763407 49.53102-142.132493 178.742376h-3.230283c-4.307045-35.533123-94.754995-136.748686-102.292324-145.362776s-20.458465-17.228181-35.533123-31.226078c-16.15142-11.844374-33.3796-3.230284-37.686646 2.153523-9.690852 11.844374-6.460568 24.76551 1.076761 31.226078 49.53102 44.147213 79.680336 73.219769 95.831756 96.908517 11.844374 17.228181 26.919033 44.147213 34.456362 67.835962H1582.839117c-2.153523 0-16.15142 3.230284-16.15142 23.688749 0 16.15142 13.997897 19.381703 16.15142 19.381703h133.518401l3.230284 23.688749v90.44795h-119.520504c-12.921136 0-16.15142 11.844374-13.997897 21.535226 18.304942 54.914826 23.688749 68.912723 26.919032 73.219768zM1605.451104 808.782334c2.153523 3.230284 9.690852 7.537329 20.458465 7.53733 11.844374 0 22.611987-4.307045 24.76551-9.690852 4.307045-16.15142-7.537329-37.686646-8.614091-41.993691h288.57203c2.153523 0 19.381703-3.230284 19.381703-25.842271 0-19.381703-17.228181-20.458465-19.381703-20.458465h-333.796004c-10.767613 0-17.228181 13.997897-17.228181 17.228181-2.153523 20.458465 17.228181 62.452156 25.842271 73.219768zM2334.418507 316.702419c-22.611987 0-24.76551-15.074658-24.76551-16.15142v-34.456362c-2.153523-19.381703-20.458465-24.76551-35.533123-24.76551h-39.840168V377.001052h36.609884c4.307045 0 18.304942 2.153523 23.688749 3.230283 32.302839 10.767613 60.298633 27.995794 60.298633 72.143008V651.575184c0 5.383807-1.076761 15.074658-3.230284 27.995794-12.921136 39.840168-46.300736 54.914826-80.757098 54.914826h-36.609884V803.398528c0 5.383807-6.460568 16.15142-23.688749 16.151419s-22.611987-11.844374-22.611987-16.151419V734.485804h-47.377498c-2.153523 0-7.537329-1.076761-17.228181-3.230283-34.456362-15.074658-52.761304-38.763407-52.761304-79.680337v-199.200841c0-12.921136 2.153523-22.611987 4.307046-29.072555 15.074658-37.686646 38.763407-47.377497 71.066246-47.377498h38.763407v-135.671924h-105.522608c-1.076761 0-19.381703-2.153523-19.381704-21.535226s11.844374-23.688749 15.074659-23.688749h190.58675c9.690852 0 27.995794 0 36.609885 2.153523 32.302839 10.767613 55.991588 31.226078 55.991588 58.14511v44.147214c0 2.153523-2.153523 17.228181-23.688749 17.228181z m-95.831756 370.405888h25.842271c22.611987 0 37.686646-5.383807 37.686646-23.688749v-213.198738c0-19.381703-15.074658-24.76551-37.686646-24.76551h-25.842271V687.108307z m-54.914827-262.729758h-25.842271c-22.611987 0-37.686646 5.383807-37.686646 24.76551V662.342797c0 19.381703 15.074658 23.688749 37.686646 23.688749h25.842271v-261.652997zM2379.642482 379.154574h251.962145c3.230284 0 15.074658-2.153523 15.074658-21.535226 0-20.458465-11.844374-24.76551-15.074658-24.76551h-254.115668c-1.076761 0-11.844374 5.383807-11.844374 22.611987s10.767613 23.688749 13.997897 23.688749zM2405.484753 815.242902h215.352261c47.377497 0 79.680336-13.997897 96.908517-51.684542 5.383807-9.690852 8.61409-22.611987 8.61409-39.840169v-157.20715c0-1.076761-7.537329-16.15142-25.842271-16.15142-20.458465 0-25.842271 16.15142-25.842271 16.15142V731.255521c0 20.458465-12.921136 34.456362-39.840168 38.763406h-230.426919c-1.076761 0-15.074658 0-15.074659 21.535227 1.076761 19.381703 16.15142 23.688749 16.15142 23.688748zM2423.789695 703.259727c1.076761 3.230284 9.690852 17.228181 21.535226 17.22818 12.921136 0 29.072555-9.690852 27.995794-22.611987-2.153523-16.15142-5.383807-52.761304-18.304942-172.281809h204.584648c43.070452 0 74.29653-19.381703 92.601472-62.452155 4.307045-15.074658 4.307045-26.919033 4.307045-34.456362v-147.516299c0-57.068349-44.147213-82.91062-96.908517-86.140904h-171.205048c-9.690852 0-20.458465 8.61409-21.535226 21.535226 0 22.611987 21.535226 24.76551 21.535226 24.76551h161.514196c37.686646 0 54.914826 16.15142 54.914826 31.226078V437.299685c0 26.919033-20.458465 40.91693-37.686645 40.916929l-253.038907 2.153523c-9.690852 0-15.074658 9.690852-15.074658 15.074658 6.460568 57.068349 22.611987 202.431125 24.76551 207.814932z"  horiz-adv-x="2756" />

    
    <glyph glyph-name="arrow" unicode="&#58897;" d="M733.866667-76.8l-682.666667 682.666667C-51.2 708.266667 17.066667 896 170.666667 896h1365.333333c153.6 0 221.866667-187.733333 119.466667-290.133333l-682.666667-682.666667c-68.266667-68.266667-170.666667-68.266667-238.933333 0z"  horiz-adv-x="1706" />

    
    <glyph glyph-name="left1" unicode="&#58898;" d="M804.513147-11.729084L398.584861 384 804.513147 779.729084c16.318725 16.318725 16.318725 42.836653 0 59.155378L759.636653 883.760956c-16.318725 16.318725-42.836653 16.318725-61.195219 0L261.915538 457.434263 217.039044 412.557769c-16.318725-16.318725-16.318725-42.836653 0-59.155379l44.876494-44.876494 436.525896-424.286852c16.318725-16.318725 42.836653-16.318725 61.195219 0l44.876494 44.876494c16.318725 16.318725 16.318725 42.836653 0 59.155378z"  horiz-adv-x="1024" />

    
    <glyph glyph-name="right1" unicode="&#58899;" d="M217.063473-13.540918L623.801996 382.978044 217.063473 779.497006c-16.351297 16.351297-16.351297 42.922156 0 59.273453L262.029541 883.736527c16.351297 16.351297 42.922156 16.351297 61.317365 0l437.397206-425.133733 44.966068-44.966067c16.351297-16.351297 16.351297-42.922156 0-59.273454l-44.966068-44.966067L323.346906-115.736527c-16.351297-16.351297-42.922156-16.351297-61.317365 0L217.063473-70.770459c-16.351297 14.307385-16.351297 40.878244 0 57.229541z"  horiz-adv-x="1024" />

    
    <glyph glyph-name="arrow1" unicode="&#58900;" d="M1017.679012 447.209877H214.91358l341.333334 341.333333c25.283951 25.283951 25.283951 63.209877 0 88.493827s-63.209877 25.283951-88.493828 0L18.962963 428.246914c-25.283951-25.283951-25.283951-63.209877 0-88.493828l448.790123-448.790123c25.283951-25.283951 63.209877-25.283951 88.493828 0s25.283951 63.209877 0 88.493827L214.91358 320.790123h802.765432c31.604938 0 63.209877 31.604938 63.209877 63.209877s-31.604938 63.209877-63.209877 63.209877z"  horiz-adv-x="1087" />

    
    <glyph glyph-name="play" unicode="&#58901;" d="M945.860465 407.813953L112.372093 890.046512C88.55814 901.953488 64.744186 890.046512 64.744186 866.232558v-964.465116c0-23.813953 23.813953-35.72093 47.627907-23.813954l833.488372 482.232559c17.860465 11.906977 17.860465 41.674419 0 47.627906z"  horiz-adv-x="1024" />

    
    <glyph glyph-name="pause1" unicode="&#58902;" d="M397.747654-128H78.481752c-43.245047 0-78.481752 35.236705-78.481752 78.481752V817.518248C0 860.763295 35.236705 896 78.481752 896h319.265902c43.245047 0 78.481752-35.236705 78.481752-78.481752v-867.036496c0-43.245047-35.236705-78.481752-78.481752-78.481752zM1030.406674-128h-319.265902c-43.245047 0-78.481752 35.236705-78.481752 78.481752V817.518248c0 43.245047 35.236705 78.481752 78.481752 78.481752H1030.406674c43.245047 0 78.481752-35.236705 78.481751-78.481752v-867.036496c0-43.245047-35.236705-78.481752-78.481751-78.481752z"  horiz-adv-x="1108" />

    
    <glyph glyph-name="fullscreen" unicode="&#58903;" d="M503.827692-128H64A64.098462 64.098462 0 0 0 0-64V347.864615a54.153846 54.153846 0 0 0 108.307692 0V-19.692308h395.52a54.153846 54.153846 0 0 0 0-108.307692zM999.384615 359.384615A54.153846 54.153846 0 0 0 945.230769 413.538462V787.692308H556.307692a54.153846 54.153846 0 0 0 0 108.307692h433.23077a64.098462 64.098462 0 0 0 64-64V413.538462a54.153846 54.153846 0 0 0-54.153847-54.153847z m-9.846153 428.307693z"  horiz-adv-x="1053" />

    
    <glyph glyph-name="volume" unicode="&#58904;" d="M481.2 769.5c50.4 39.2 89.6 18.2 89.6-44.8v-686c0-60.2-39.2-78.4-84-39.2L285.2 164.6H174.6C111.6 164.6 64 215 64 275.2V500.7c0 60.2 50.4 110.6 110.6 110.6h105l201.6 158.2zM687 203.8c-12.6 0-21 5.6-26.6 12.6-18.2 18.2-18.2 39.2 0 54.6 65.8 65.8 65.8 165.2 0 231-18.2 18.2-18.2 39.2 0 54.6 18.2 18.2 39.2 18.2 57.4 0 102.2-92.4 102.2-242.2 0-336-15.4-14-18.2-16.8-30.8-16.8z m110.6-63c-18.2 18.2-18.2 39.2 0 54.6 105 105 105 270.2 0 375.2-18.2 18.2-18.2 39.2 0 54.6 18.2 18.2 39.2 18.2 57.4 0 65.8-65.8 105-149.8 105-236.6S920.8 212.2 855 152c-5.6-5.6-18.2-12.6-26.6-12.6-12.6-8.4-23.8-1.4-30.8 1.4z"  horiz-adv-x="1024" />

    
    <glyph glyph-name="zm-small" unicode="&#58905;" d="M1022.464 865.28c-4.096 14.336-15.36 25.6-30.208 29.184-14.336 3.584-30.208-0.512-40.448-11.264L696.32 624.128V839.68c0 23.04-18.944 41.984-41.984 41.984-23.04 0-41.984-18.944-41.984-41.984V521.216c0-1.024 0.512-2.048 0.512-3.072v-1.024c0-1.024 0.512-2.56 1.024-3.584v-0.512c0.512-1.024 1.024-2.56 1.024-3.584v-0.512l1.536-3.072s0-0.512 0.512-0.512c0.512-1.024 1.024-2.048 1.536-2.56 0 0 0.512-0.512 0.512-1.024 0.512-1.024 1.024-1.536 1.536-2.56 0-0.512 0.512-0.512 0.512-1.024 0.512-1.024 1.536-2.048 2.56-2.56l0.512-0.512s0.512 0 0.512-0.512l2.56-2.56c0.512 0 0.512-0.512 1.024-0.512 1.024-0.512 1.536-1.024 2.56-1.536 0 0 0.512-0.512 1.024-0.512 1.024-0.512 2.048-1.024 2.56-1.536h0.512l3.072-1.536h0.512c1.024-0.512 2.56-1.024 3.584-1.024h0.512c1.024-0.512 2.56-0.512 3.584-1.024h1.024c1.024 0 2.048-0.512 3.072-0.512h320c23.04 0 41.984 18.944 41.984 41.984 0 23.04-18.944 41.984-41.984 41.984h-211.456l253.952 257.536c9.728 10.24 13.824 25.6 9.728 39.936zM369.664 284.672H54.272c-23.04 0-41.984-18.944-41.984-41.984 0-23.04 18.944-41.984 41.984-41.984h211.456L12.288-56.832c-11.776-12.288-15.36-30.208-8.704-45.568s22.016-25.6 38.912-25.6c11.264 0 22.016 4.608 30.208 12.8L327.68 143.872V-71.68c0-11.264 4.608-22.016 12.288-29.696s18.432-12.288 29.696-12.288c11.264 0 22.016 4.608 29.696 12.288s12.288 18.432 12.288 29.696v314.368c0.512 23.04-18.432 41.984-41.984 41.984z"  horiz-adv-x="1024" />

    


  </font>
</defs>
</svg>
