<svg xmlns="http://www.w3.org/2000/svg" display="none">
 　　<symbol id="zm-arrow" viewBox="0 0 245.8 134.9">
        <g>
            <path d="M122.8,134.6c-3.1,0-6-1.2-8.2-3.4L3.4,20C1.2,17.8,0,14.8,0,11.7c0-3.1,1.2-6.1,3.4-8.3l0.1-0.1C5.7,1.2,8.6,0,11.7,0
                c3.1,0,6,1.2,8.2,3.4l111.3,111.2c4.5,4.6,4.5,12-0.1,16.5C128.9,133.4,126,134.6,122.8,134.6z"/>
            <path d="M123,134.9c-2.9,0-5.7-1.1-7.8-3l-0.1-0.1l0,0l-0.5-0.5c-4.3-4.5-4.3-11.6,0-16.1l0.1-0.1L225.8,3.7
                c2.2-2.2,5.1-3.4,8.2-3.4c3,0,5.9,1.2,8.1,3.2c1.7,1.8,3,4,3.5,6.5c0.6,3.7-0.5,7.5-3.2,10.2L131.2,131.5
                C129,133.7,126.1,134.9,123,134.9L123,134.9z"/>
        </g>
　　</symbol>
    <symbol id="zm-address" viewBox="0 0 28.2 36">
        <g>
            <path style="fill:#D9534F;" d="M28.2,14.1C28.2,5.9,22.3,0,14.1,0C6.3,0,0,6.3,0,14.1c0,5.7,7.8,15.4,12,20.7l0.3,0.4c0.4,0.5,1.1,0.9,1.8,0.9
                c0.7,0,1.4-0.3,1.8-0.9l0.3-0.4C20.4,29.5,28.2,19.8,28.2,14.1z M14.1,18.4c-3.4,0-6.2-2.8-6.2-6.2S10.7,6,14.1,6s6.2,2.8,6.2,6.2
                S17.5,18.4,14.1,18.4z"/>
        </g>
　　</symbol>
    <symbol id="zm-shopcart" viewBox="0 0 30 26">
        <g>
            <path class="st0" style="fill:#CC3333;" d="M30,14.9V1.5H7C7,0.6,6.3,0,5.5,0h-4C0.7,0,0,0.7,0,1.5S0.7,3,1.5,3h2.9L8,17v2H7v2h1h1.5H10h15.5H28v-2H10
                v-2.2L30,14.9z"/>
            <circle style="fill:#CC3333;" cx="9.5" cy="23.5" r="2.5"/>
            <circle style="fill:#CC3333;" cx="25.5" cy="23.5" r="2.5"/>
        </g>
    </symbol>
    <symbol id="zm-notfound" viewBox="0 0 56 56">
            <g>
                <path style="fill:#3b88c7" d="M23.6,37.8c1.6-1.2,4.3-2.8,5.4-2.8c1.1,0,3.8,1.6,5.4,2.8l1.2-1.6C34.9,35.7,31.2,33,29,33s-5.9,2.7-6.6,3.2
                    L23.6,37.8z"/>
                <path style="fill:#3b88c7" d="M54,4H2C0.9,4,0,4.9,0,6v36c0,1.1,0.9,2,2,2h5.4c-0.2,0.6-0.3,1.2-0.4,1.8c0,0.6,0.3,1.2,0.9,1.4
                    c2,0.8,3.4,1.7,4.2,2.2c0.5,0.3,0.7,0.8,0.7,1.4V52h2v-1.2c0-1.2-0.6-2.4-1.6-3.1c-0.8-0.6-2.2-1.4-4.2-2.2
                    c0.2-1.1,0.7-2.5,2.3-2.5c4.5,0,8.4,1.8,11.8,5.5c0.3,0.3,0.5,0.8,0.5,1.2V52h2v-2.3c0-1-0.4-1.9-1-2.6c-1.2-1.2-2.4-2.3-3.6-3.1
                    h15.6c-1.3,0.9-2.5,1.9-3.6,3.1c-0.7,0.7-1,1.6-1,2.6V52h2v-2.3c0-0.4,0.2-0.9,0.5-1.2c3.5-3.7,7.3-5.5,11.8-5.5
                    c1.6,0,2.1,1.4,2.3,2.5c-2,0.8-3.4,1.7-4.2,2.2c-1,0.7-1.6,1.8-1.6,3.1V52h2v-1.2c0-0.6,0.3-1.1,0.7-1.4c0.8-0.5,2.2-1.4,4.2-2.2
                    c0.6-0.2,0.9-0.8,0.9-1.4c0-0.6-0.2-1.2-0.4-1.8H54c1.1,0,2-0.9,2-2V6C56,4.9,55.1,4,54,4z M17.4,42h-0.3c-1.8-0.7-3.8-1-5.8-1
                    c-0.4,0-0.8,0.1-1.2,0.2c0.4-2.9-0.4-4.8-0.5-4.9c0-0.1-0.1-0.2-0.2-0.3c-0.1-0.2-3.5-4.1-1-8c2-3,1.8-5.4,1-7h7
                    c0.5,0.5,2.1,2.2-0.2,5.7c-2.8,4.2-0.6,8.8,1,10.7C17.6,37.9,18,39.6,17.4,42z M48.1,36c-0.1,0.1-0.1,0.2-0.2,0.3
                    c0,0.1-0.9,2-0.5,4.9c-0.4-0.1-0.7-0.2-1.2-0.2c-2.1,0-4.1,0.4-6,1.1c-0.7-2.5-0.2-4.2-0.1-4.7c1.7-2,3.8-6.5,1-10.7
                    c-2.3-3.4-0.7-5.1-0.2-5.7h7c-0.8,1.6-1,4,1,7C51.6,31.9,48.2,35.8,48.1,36z M54,42h-4.3c-0.6-2.4-0.2-4.1,0-4.6
                    c1.7-2,3.8-6.5,1-10.7c-2.3-3.4-0.7-5.1-0.2-5.7h1.2v-2h-14v2h0.9c-0.8,1.6-1,4,1,7c2.6,3.9-0.8,7.8-1,8c-0.1,0.1-0.1,0.2-0.2,0.3
                    c0,0.1-1,2.4-0.3,5.7H19.5c0.7-3.4-0.3-5.6-0.3-5.7c0-0.1-0.1-0.2-0.2-0.3c-0.1-0.2-3.5-4.1-1-8c2-3,1.8-5.4,1-7H20v-2H6v2h1.2
                    c0.5,0.5,2.1,2.2-0.2,5.7c-2.8,4.2-0.6,8.8,1,10.7c0.2,0.5,0.6,2.2,0,4.6H2V6h52V42z"/>
                <path style="fill:#3b88c7" d="M26.2,16.3c-3.8-0.9-8.7-4.8-8.7-4.9l-0.9,1.2c0.2,0.2,5.2,4.1,9.3,5.1L26.2,16.3z"/>
                <path style="fill:#3b88c7" d="M39.5,12.6l-0.9-1.2c0,0-4.9,3.9-8.7,4.9l0.4,1.5C34.3,16.7,39.3,12.8,39.5,12.6z"/>
            </g>
    </symbol>
    <symbol id="zm-toTop" viewBox="0 0 1024 1024">
        <g>
            <path style="fill:#1E8CCB;" d="M557.654996 981.669904c-6.499999 59.041994-88.986991 53.776995-92.179991 0-0.083-40.896996-0.083-641.390937-0.083-641.390937l-283.839972 273.963973c-44.472996 38.308996-97.43499-22.922998-64.344994-63.215994 125.709988-121.895988 351.289966-340.004967 356.507965-345.049966 20.810998-22.608998 53.572995-23.779998 75.721993 0 41.406996 40.037996 348.700966 336.328967 358.028965 346.989966 31.166997 38.741996-19.223998 96.073991-62.242994 63.773994C834.109969 607.310941 557.739996 340.267967 557.739996 340.267967M116.396039 3.332l786.487923 0 0 89.285991L116.396039 92.617991 116.396039 3.332z"></path>
        </g>
    </symbol>
    <symbol id="zm-search" viewBox="0 0 34 34">
        <path d="M33.1,34c-0.2,0-0.5-0.1-0.6-0.3L25.7,27l-0.6,0.5c-2.8,2.2-6.1,3.4-9.7,3.4c-4.1,0-8-1.6-10.9-4.5
            S0,19.6,0,15.5s1.6-8,4.5-10.9c3-3,6.8-4.6,11-4.6c4.1,0,8,1.6,10.9,4.5s4.5,6.8,4.5,10.9c0,3.6-1.2,6.9-3.4,9.7L27,25.7l6.7,6.7
            c0.4,0.4,0.4,0.9,0,1.3C33.6,33.9,33.3,34,33.1,34z M15.5,1.8c-3.6,0-7,1.4-9.6,4s-4,6-4,9.6c0,3.7,1.4,7.1,4,9.6c2.6,2.6,6,4,9.6,4
            c3.7,0,7.1-1.4,9.6-4c2.6-2.6,4-6,4-9.6s-1.4-7.1-4-9.6S19.1,1.8,15.5,1.8z">
        </path>
    </symbol>
    <symbol id="zm-logo" viewBox="0 0 402.1 144.1">
        <svg>
            <path d="M81.5,19c7.1,0,13.9,1.2,20.3,3.4v-3.5c0-8.5,7-15.4,15.4-15.4h28.4c1.8-2.1,4.5-3.4,7.5-3.4
                c5.5,0,10,4.5,10,10s-4.5,10-10,10c-2.9,0-5.6-1.3-7.5-3.4h-2.1h-5.9h-17.3c-3.2,0-5.8,2.6-5.8,5.8v6.1
                c17.6,11.1,29.4,30.6,29.4,53c0,34.5-28,62.5-62.5,62.5s-62.5-28-62.5-62.5c0-22.4,11.7-41.9,29.4-53v-6.1c0-3.2-2.6-5.8-5.8-5.8
                H25.4h-5.9h-2.2c-1.8,2.1-4.5,3.4-7.5,3.4C4.5,20,0,15.5,0,10S4.5,0,10,0c2.9,0,5.6,1.3,7.5,3.4H46c8.5,0,15.4,7,15.4,15.4v3.5
                C67.6,20.2,74.4,19,81.5,19L81.5,19z M119.4,84.4h-12c-1.5,13-12.6,23-26.1,23s-24.4-10.1-26.1-23h-12c1.6,19.6,18,35,38,35
                S117.8,104,119.4,84.4L119.4,84.4z M81.5,31C53.6,31,31,53.6,31,81.5S53.6,132,81.5,132S132,109.4,132,81.5S109.4,31,81.5,31z"/>
            <g>
                <path  d="M210.3,134.8c0.5,0,0.9-0.1,1.2-0.4c0.3-0.2,0.5-0.5,0.5-1s-0.2-0.8-0.5-1.1c-0.3-0.2-0.8-0.4-1.2-0.4h-15.8
                l15.4-17.5c0.2-0.2,0.3-0.5,0.4-0.9c0.1-0.3,0-0.5-0.1-0.9c-0.1-0.3-0.3-0.5-0.7-0.7c-0.3-0.2-0.7-0.3-1.2-0.3h-17.2
                c-0.5,0-1,0.1-1.3,0.4c-0.3,0.2-0.5,0.5-0.5,1c0,0.4,0.2,0.8,0.5,1.1c0.3,0.3,0.8,0.4,1.3,0.4h14l-15.2,17.3
                c-0.2,0.2-0.4,0.5-0.5,0.8c-0.1,0.2-0.2,0.5-0.2,0.8c0,0.4,0.2,0.8,0.5,1.1s0.9,0.4,1.6,0.4h18.8V134.8z M381.6,112.1
                c-0.2,0-0.5,0.1-0.8,0.2c-0.2,0.1-0.4,0.2-0.5,0.4h0.1c-0.1,0.1-0.2,0.3-0.3,0.5c-0.1,0.2-0.1,0.3-0.1,0.5c0.1,0.4,0.3,0.8,0.8,1
                c0.3,0.2,0.9,0.3,1.3,0.2c1.2-0.1,2.3-0.2,3.4-0.3c1.1-0.1,2.2-0.1,3.2-0.1c0.4,0,1,0,1.4,0c0.5,0,1,0.1,1.4,0.1
                c0.8,0.1,1.4,0.3,2,0.5c0.5,0.3,1.1,0.7,1.4,1.1c0.3,0.4,0.5,1.1,0.5,1.7v2.5c-0.3,0-0.8,0-1.1,0s-0.8,0-1.2,0c-0.8,0-1.5,0-2.3,0
                c-0.8,0-1.5,0.1-2.3,0.1c-0.5,0-1.2,0.1-1.8,0.1c-0.7,0.1-1.2,0.1-1.8,0.2c-1.1,0.2-2,0.4-2.8,0.9c-0.9,0.4-1.5,1-2.1,1.6
                c-0.5,0.7-1,1.3-1.3,2.1c-0.3,0.8-0.4,1.5-0.4,2.3c0,0.2,0,0.4,0,0.8c0,0.2,0.1,0.4,0.1,0.7c0.2,0.8,0.5,1.6,1.2,2.3
                c0.5,0.8,1.3,1.4,2.3,2c0.8,0.4,1.5,0.7,2.4,0.9c0.9,0.1,1.8,0.2,2.7,0.2c1.3,0,2.5-0.1,3.8-0.3c1.3-0.2,2.5-0.4,3.6-0.9l0.9-0.2
                c0,0.1,0,0.3,0.1,0.4c0.1,0.1,0.2,0.3,0.3,0.4c0.2,0.1,0.3,0.2,0.5,0.3s0.4,0.1,0.8,0.1c0.5,0,1-0.1,1.3-0.4
                c0.3-0.2,0.5-0.5,0.5-1l0.1-15.1c0-1.3-0.3-2.4-0.9-3.3c-0.5-0.9-1.4-1.5-2.5-2.1c-1.1-0.5-2.3-0.9-3.6-1
                c-0.5-0.1-1.1-0.1-1.6-0.2c-0.5,0-1.2-0.1-1.8-0.1c-1.2,0-2.3,0.1-3.5,0.1C383.8,111.9,382.8,112,381.6,112.1L381.6,112.1z
                M395.4,123.5v6.7l-0.4,0.2c-0.2,0.1-0.4,0.2-0.8,0.2c-0.2,0.1-0.5,0.2-1,0.3c-0.7,0.2-1.3,0.3-2.1,0.5c-0.7,0.1-1.4,0.3-2.1,0.4
                c-0.7,0.1-1.4,0.1-2,0.1c-0.5,0-1.1,0-1.6-0.1c-0.5-0.1-1-0.2-1.3-0.4c-0.8-0.4-1.3-1-1.6-1.6c-0.3-0.5-0.5-1.2-0.5-1.8
                c0-0.7,0.1-1.2,0.4-1.7c0.3-0.5,0.8-1.1,1.3-1.4c0.5-0.4,1.2-0.7,2-0.8c0.8-0.1,1.5-0.2,2.4-0.3c0.9-0.1,1.7-0.1,2.6-0.1
                c0.9,0,1.7,0,2.6,0h2.1V123.5z M338.9,133.2c0,0.4,0.2,0.8,0.5,1c0.3,0.2,0.8,0.4,1.3,0.4c0.5,0,1-0.1,1.4-0.4
                c0.3-0.2,0.5-0.5,0.5-1l-0.1-14.1c0-1.4-0.2-2.5-0.5-3.5c-0.4-0.9-1-1.6-1.6-2.2c-0.7-0.5-1.5-1-2.4-1.2c-0.9-0.2-1.8-0.3-2.9-0.3
                c-1.1,0-2.2,0.1-3.4,0.3c-1.2,0.2-2.3,0.4-3.4,0.8c-1.1,0.3-2.1,0.7-2.8,0.9c-0.7-0.8-1.5-1.3-2.5-1.6s-2-0.4-3.2-0.4
                c-0.9,0-1.7,0.1-2.7,0.2c-1,0.1-1.8,0.3-2.7,0.7c-0.9,0.2-1.7,0.5-2.5,0.8v-0.2c0-0.4-0.2-0.8-0.5-1c-0.3-0.2-0.8-0.4-1.3-0.4
                c-0.5,0-1.1,0.1-1.4,0.4c-0.3,0.2-0.5,0.7-0.5,1v19.9c0,0.4,0.2,0.8,0.5,1c0.3,0.2,0.8,0.4,1.3,0.4s1-0.1,1.4-0.4
                c0.3-0.2,0.5-0.5,0.5-1v-16.4l0,0l0,0c0.4-0.2,1-0.4,1.6-0.7c0.7-0.2,1.3-0.4,2.1-0.7c0.8-0.2,1.4-0.3,2.2-0.4
                c0.8-0.1,1.4-0.2,2.1-0.2c0.7,0,1.2,0.1,1.7,0.3c0.5,0.2,1,0.7,1.3,1.3c0.3,0.7,0.4,1.5,0.4,2.6v14.1c0,0.4,0.2,0.8,0.5,1
                c0.3,0.2,0.8,0.4,1.3,0.4c0.5,0,1-0.1,1.4-0.4c0.3-0.2,0.5-0.5,0.5-1L327,119c0-0.4,0-0.9-0.1-1.3c-0.1-0.4-0.1-0.8-0.2-1.2
                c0.8-0.2,1.5-0.5,2.5-0.8c1-0.3,2-0.5,2.9-0.7c1-0.2,2-0.3,2.8-0.3c0.8,0,1.3,0.1,2,0.3c0.5,0.2,1.1,0.7,1.4,1.3
                c0.3,0.7,0.5,1.5,0.5,2.6L338.9,133.2L338.9,133.2z M266.2,129.9c-0.7,0.2-1.3,0.4-2.2,0.7c-0.8,0.2-1.6,0.4-2.6,0.7
                c-1,0.2-1.8,0.4-2.7,0.5c-1,0.1-1.8,0.2-2.6,0.2c-0.9,0-1.6-0.1-2.3-0.3c-0.7-0.2-1.2-0.7-1.6-1.3c-0.4-0.7-0.7-1.5-0.7-2.6
                l-0.1-14.1c0-0.4-0.2-0.8-0.5-1c-0.3-0.2-0.8-0.4-1.2-0.4c-0.5,0-1.1,0.1-1.4,0.4c-0.3,0.2-0.5,0.5-0.5,1v14.1
                c0,1.4,0.2,2.5,0.7,3.5c0.4,1,1,1.6,1.7,2.2c0.8,0.5,1.6,1,2.6,1.2c1,0.2,2.1,0.3,3.2,0.3c1.1,0,2.3-0.1,3.5-0.3
                c1.2-0.2,2.4-0.4,3.5-0.7c1.2-0.2,2.2-0.5,3.2-0.8v0.4c0,0.4,0.2,0.8,0.5,1c0.3,0.2,0.8,0.4,1.3,0.4c0.5,0,1.1-0.1,1.4-0.4
                c0.3-0.2,0.5-0.5,0.5-1v-19.9c0-0.4-0.2-0.8-0.5-1c-0.3-0.2-0.8-0.4-1.3-0.4s-1,0.1-1.4,0.4c-0.3,0.2-0.5,0.5-0.5,1v16.2H266.2z"/>
                <path d="M215.2,19.6v-5.6c0-0.9-0.4-1.6-1.1-2.3s-1.5-1-2.5-1h-0.2c-1,0-1.7,0.3-2.4,1c-0.7,0.7-1,1.4-1.1,2.3v5.6
                h-14.6c-1,0-1.8,0.3-2.5,1c-0.7,0.7-1.1,1.4-1.1,2.3V23c0,0.9,0.4,1.6,1.1,2.3s1.5,1,2.5,1h3.2v14c0,9.2-0.5,18.5-1.6,27.6
                c-1.1,9.1-2.8,18.1-5.1,26.9c-0.2,0.9-0.1,1.7,0.4,2.4c0.5,0.8,1.2,1.2,2.2,1.5h0.2c0.7,0.1,1.2,0.1,1.8,0
                c0.5-0.2,1.1-0.4,1.5-0.9c0.4-0.4,0.8-0.9,0.9-1.5c2.2-7.7,3.8-15.8,4.9-23.9c1.1-8.1,1.8-16.3,2.1-24.6h12.6
                c0.7,0,1.2,0.1,1.6,0.3c0.5,0.2,1,0.5,1.3,0.9c0.4,0.3,0.7,0.8,0.9,1.2c0.2,0.4,0.3,1,0.3,1.5v36.6c0,0.5-0.1,1.1-0.3,1.5
                c-0.2,0.4-0.5,0.9-0.9,1.2c-0.3,0.3-0.8,0.7-1.3,0.8c-0.5,0.2-1.1,0.3-1.6,0.3h-3.5c-0.7,0-1.3,0.2-1.8,0.4
                c-0.5,0.3-1,0.7-1.3,1.2c-0.3,0.4-0.4,1-0.4,1.6v0.2c0,0.9,0.3,1.6,1,2.3c0.7,0.7,1.5,1,2.6,1h3.5c1.6,0,3-0.3,4.5-0.9
                c1.4-0.5,2.6-1.3,3.6-2.3c1.1-1,2-2.1,2.6-3.4c0.3-0.7,0.4-1.3,0.7-2c0.1-0.7,0.2-1.3,0.2-2.1V51.8c0-0.8-0.1-1.4-0.2-2.1
                c-0.1-0.7-0.3-1.3-0.7-2c-1-2-2.4-3.6-4.2-4.7c-1.8-1.2-4-1.7-6.4-1.7h-12.5v-1.1V26.2h23.7c1,0,1.8-0.3,2.5-1s1-1.4,1-2.3v-0.2
                c0-0.9-0.3-1.6-1-2.3c-0.7-0.7-1.5-1-2.5-1h-12.4V19.6z M246.6,36.3c0.2-0.9,0.2-1.6-0.2-2.4c-0.4-0.8-1.1-1.2-2.1-1.5l-0.3-0.1
                c-1-0.3-2-0.2-2.8,0.2c-0.9,0.4-1.4,1-1.8,1.8l-2.7,7.7c-0.2,0.5-0.3,1-0.2,1.5c0.1,0.5,0.3,1,0.7,1.3c0.4,0.4,0.9,0.9,1.3,1.1
                c0.5,0.2,1.1,0.3,1.6,0.3h15.2v9c0,1.1,0,2.2-0.1,3.3s-0.2,2.2-0.3,3.2h-17.3c-1,0-1.8,0.3-2.5,0.9c-0.7,0.7-1.1,1.4-1.1,2.3V65
                c0,1,0.4,1.7,1.1,2.3c0.7,0.5,1.5,0.9,2.5,0.9h15.6c-0.4,1.3-1,2.5-1.5,3.8c-0.5,1.2-1.2,2.5-1.8,3.7c-1.8,3-4,5.9-6.5,8.6
                c-2.5,2.6-5.3,5.1-8.4,7.5c-0.5,0.3-0.9,0.9-1.1,1.3c-0.2,0.5-0.2,1.1-0.1,1.6c0.1,0.5,0.3,1,0.8,1.5l0.2,0.3
                c0.3,0.3,0.8,0.7,1.1,0.8c0.4,0.2,0.9,0.3,1.4,0.3c0.4,0,1,0,1.4-0.1c0.4-0.1,0.9-0.3,1.2-0.7c1.7-1.3,3.3-2.6,4.8-3.9
                c1.5-1.3,2.8-2.6,4.1-3.9c2.7-2.8,5-5.6,6.8-8.5c1.8-2.9,3.4-5.9,4.5-9l19.8,25.3c0.4,0.4,0.9,0.8,1.4,1c0.5,0.2,1.2,0.3,1.8,0.3
                s1.2-0.2,1.7-0.5c0.5-0.3,1-0.8,1.3-1.3c0.2-0.5,0.3-1.1,0.3-1.6c0-0.5-0.3-1.1-0.7-1.6l-19.4-24.8h18c1.1,0,2-0.3,2.6-0.9
                c0.7-0.7,1-1.4,1-2.3V65c0-1-0.3-1.7-1-2.3s-1.5-0.9-2.6-0.9h-21.9c0.2-2.1,0.3-4.2,0.3-6.5v-9h19.8c1,0,1.8-0.3,2.5-1
                c0.7-0.7,1.1-1.4,1.1-2.3v-0.2c0-0.5-0.2-1.1-0.5-1.6c-0.3-0.4-0.8-0.9-1.3-1.2c-0.5-0.3-1.2-0.4-1.8-0.4h-36.9L246.6,36.3
                L246.6,36.3z M245.3,15.9c0.2-0.5,0.2-1.1,0.1-1.6s-0.4-1-0.8-1.5c-0.4-0.4-1-0.8-1.6-1l-0.2-0.1c-1-0.2-1.8-0.1-2.7,0.2
                c-0.9,0.4-1.5,1-1.8,1.8l-2.7,7.6c-0.2,0.5-0.3,1-0.2,1.5c0,0.5,0.2,1,0.5,1.5c0.4,0.4,0.9,0.7,1.4,0.9s1.1,0.3,1.7,0.3h45.1
                c1,0,1.8-0.3,2.5-0.9c0.7-0.5,1.1-1.3,1.1-2.2v-0.2c0-0.9-0.4-1.6-1.1-2.3c-0.7-0.7-1.5-1-2.5-1h-39.9L245.3,15.9L245.3,15.9z
                M321.3,73.6v19.1h-14.1c-1,0-1.8,0.3-2.5,1c-0.7,0.7-1.1,1.4-1.1,2.3V96c0,0.9,0.4,1.6,1.1,2.3s1.5,1,2.5,1h27.5
                c1.6,0,3.2-0.3,4.6-0.9c1.4-0.5,2.6-1.3,3.6-2.2c1-1,1.8-2.1,2.4-3.3c0.7-1.3,1-2.6,1-4.1v-3.3c0-1-0.4-1.7-1.1-2.3
                c-0.7-0.5-1.5-0.9-2.5-0.9h-0.3c-1,0-1.8,0.3-2.5,0.9c-0.7,0.7-1.1,1.4-1.1,2.3v3.3c0,0.5-0.1,1.1-0.3,1.6
                c-0.2,0.5-0.5,0.9-0.9,1.2c-0.4,0.3-0.9,0.7-1.3,0.8c-0.5,0.2-1.1,0.3-1.6,0.3h-6.1V73.6h5.1c0.9,0,1.6-0.1,2.4-0.2
                c0.8-0.1,1.4-0.3,2.1-0.7c1.4-0.5,2.7-1.3,3.8-2.3c1.1-1,2-2.1,2.5-3.3c0.5-1.2,0.9-2.5,0.9-4V33.6c0-0.8-0.1-1.4-0.2-2.2
                c-0.1-0.7-0.3-1.3-0.7-2c-0.7-1.3-1.5-2.4-2.6-3.4c-1.1-1-2.4-1.6-3.7-2.2c-1.4-0.5-2.9-0.8-4.5-0.8h-5.1V14c0-0.9-0.3-1.6-1-2.3
                s-1.5-1-2.6-1c-1.1,0-2,0.3-2.6,1c-0.7,0.7-1,1.4-1,2.3v9.1h-5.1c-2.4,0-4.6,0.5-6.4,1.7c-1.8,1.1-3.3,2.6-4.2,4.6
                c-0.3,0.7-0.5,1.3-0.7,2c-0.1,0.7-0.2,1.4-0.2,2.2v29.7c0,2,0.5,3.7,1.5,5.2s2.4,2.8,4.1,3.7c1.7,1,3.7,1.4,5.9,1.4H321.3
                L321.3,73.6z M362.1,28.7c0.1-1-0.1-1.7-0.8-2.4c-0.7-0.7-1.4-1-2.4-1.2l-0.2-0.1c-0.7-0.1-1.2,0-1.8,0.2c-0.5,0.2-1.1,0.5-1.4,1
                c-0.4,0.4-0.7,1-0.8,1.5l-3.6,27.8c0,0.4,0,1,0.1,1.4c0.2,0.4,0.4,0.9,0.9,1.2c0.3,0.3,0.8,0.7,1.2,0.8c0.4,0.2,1,0.3,1.5,0.3
                h33.6c1,0,1.7,0.1,2.5,0.4c0.8,0.3,1.4,0.7,2,1.2c0.7,0.5,1.1,1.2,1.4,1.8s0.4,1.4,0.4,2.2v22.1c0,0.9-0.2,1.5-0.4,2.2
                c-0.3,0.7-0.8,1.3-1.4,1.8c-0.7,0.5-1.3,1-2,1.2c-0.8,0.3-1.5,0.4-2.5,0.4h-24.1c-1,0-1.8,0.3-2.5,0.9c-0.7,0.7-1.1,1.4-1.1,2.3
                v0.1c0,0.9,0.4,1.6,1.1,2.3s1.5,1,2.5,1h24.1c1,0,1.8-0.1,2.7-0.2c0.9-0.1,1.7-0.4,2.6-0.8c1.7-0.7,3.2-1.5,4.3-2.6
                c1.2-1.1,2.2-2.4,2.8-3.8c0.4-0.8,0.7-1.5,0.9-2.4c0.2-0.8,0.3-1.6,0.3-2.4V65.1c0-0.9-0.1-1.7-0.3-2.5c-0.2-0.8-0.5-1.5-0.9-2.3
                c-0.7-1.5-1.6-2.7-2.8-3.9c-1.2-1.1-2.7-2.1-4.3-2.7c-0.9-0.3-1.7-0.5-2.6-0.7c-0.9-0.1-1.8-0.2-2.7-0.2h-29.1L362.1,28.7
                L362.1,28.7z M353.5,11.8h30.9c1,0,2,0,2.8,0.2c0.9,0.1,1.7,0.3,2.5,0.7c1.7,0.7,3.2,1.5,4.3,2.6c1.2,1.1,2.2,2.4,2.9,3.9
                c0.3,0.8,0.7,1.5,0.8,2.3c0.2,0.8,0.3,1.6,0.3,2.4v22.5c0,0.9-0.4,1.6-1.1,2.3c-0.7,0.7-1.5,1-2.5,1h-0.2c-1,0-1.8-0.3-2.5-1
                c-0.7-0.7-1.1-1.4-1.1-2.3V24c0-0.8-0.1-1.4-0.4-2.1s-0.8-1.3-1.3-1.8c-0.7-0.5-1.3-1-2.1-1.3c-0.8-0.3-1.5-0.4-2.5-0.4h-30.9
                c-1,0-1.8-0.3-2.5-0.9c-0.7-0.7-1.1-1.4-1.1-2.3v-0.1c0-0.9,0.4-1.6,1.1-2.3C351.7,12.2,352.6,11.8,353.5,11.8L353.5,11.8z
                M328.4,67V29.9h5.1c0.7,0,1.2,0.1,1.7,0.2c0.5,0.1,1,0.4,1.4,0.9c0.4,0.3,0.7,0.8,0.9,1.2c0.2,0.4,0.3,1,0.3,1.5v29.7
                c0,0.5-0.1,1.1-0.3,1.5s-0.5,0.9-0.9,1.2c-0.4,0.3-0.9,0.7-1.4,0.8c-0.5,0.2-1.1,0.3-1.7,0.3h-5.1V67z M311.9,33.6
                c0-1.1,0.4-2,1.2-2.7c0.8-0.7,1.8-1,3-1.1h5.1v37.2h-5.1c-1.3,0-2.3-0.4-3-1.1c-0.8-0.7-1.2-1.6-1.2-2.7V33.6L311.9,33.6z
                M349.9,73.4h33.8c1,0,1.7,0.3,2.4,1c0.7,0.7,1,1.4,1.1,2.3v0.2c0,0.9-0.4,1.6-1.1,2.3s-1.5,1-2.4,1h-33.8c-1,0-1.8-0.3-2.5-1
                c-0.7-0.7-1.1-1.4-1.1-2.3v-0.2c0-0.9,0.4-1.6,1.1-2.3C348.1,73.8,348.9,73.4,349.9,73.4z"/>
            </g>
        </svg>
    </symbol>
</svg>