<?xml version="1.0" encoding="utf-8"?>
<!-- Generator: Adobe Illustrator 23.0.0, SVG Export Plug-In . SVG Version: 6.00 Build 0)  -->
<svg version="1.1" id="图层_1" xmlns="http://www.w3.org/2000/svg" xmlns:xlink="http://www.w3.org/1999/xlink" x="0px" y="0px"
	 viewBox="0 0 1920 590" style="enable-background:new 0 0 1920 590;" xml:space="preserve">
<style type="text/css">
	.st0{display:none;fill:#FFFFFF;enable-background:new    ;}
	.st1{font-family:'SourceHanSansCN-Regular-GBpc-EUC-H';}
	.st2{font-size:320px;}
	.st3{display:none;fill:#FFFFFF;}
	.st4{display:none;fill:url(#SVGID_5_);}
	.st5{display:none;}
	.st6{display:none;fill:none;}
	.st7{display:none;fill:#A4D8E4;}
	.st8{display:none;fill:#95D3E8;}
	.st9{display:none;fill:#B5D3D8;}
	.st10{display:none;fill:#85C6D8;}
	.st11{display:none;fill:#F7F7F7;}
	.st12{fill:#FFFFFF;}
	.st13{fill:url(#SVGID_6_);}
	.st14{fill:none;}
	.st15{fill:#5FE878;}
	.st16{fill:#39BF7E;}
	.st17{font-size:313.1293px;}
	.st18{display:none;fill:#29A7F7;}
	.st19{display:none;fill:#5FE1FF;}
	.st20{display:none;fill:#48C2FF;}
	.st21{display:none;fill:#3AB5DB;}
	.st22{display:none;fill:#FFB259;}
	.st23{display:none;fill:#36B7FF;}
	.st24{display:none;fill:url(#SVGID_7_);}
	.st25{display:none;fill:url(#SVGID_8_);}
	.st26{display:none;fill:#BABCAF;}
	.st27{display:none;fill:#95A098;}
</style>
<text transform="matrix(1 0 0 1 775.2886 400.9443)" class="st0 st1 st2">初级版</text>
<polygon class="st3" points="224.8,62.6 557.3,62.6 715.7,221 392.7,544 66.4,221 "/>
<linearGradient id="SVGID_5_" gradientUnits="userSpaceOnUse" x1="984.6212" y1="513.178" x2="975.3308" y2="1056.6619" gradientTransform="matrix(1 0 0 1 0 -488)">
	<stop  offset="0.2217" style="stop-color:#25DDEA"/>
	<stop  offset="1" style="stop-color:#01B0DC"/>
</linearGradient>
<path class="st4" d="M1770.2,62.6H638.5l-46.3-47.5H199.4L-0.1,221l392.8,395.9l79.6-79.2l1297.8-0.4
	c101.2,1.3,184.2-99.5,190.7-220.2C1968.1,184.8,1881.6,62,1770.2,62.6L1770.2,62.6z"/>
<polygon class="st3" points="66.4,221 224.8,62.6 557.3,62.6 715.7,221 392.7,544 "/>
<path class="st5" d="M66.4,221"/>
<rect id="SVGID_1_" y="15" class="st6" width="1961.8" height="602.9"/>
<path class="st3" d="M880.3,438.6"/>
<path class="st7" d="M483,227.5L392.2,107l-90,121.1l-91.8-81.5l46.9,254.1H527l46.9-254.1L483,227.5z"/>
<path class="st8" d="M483,227.5L392.2,107l-0.2,0.2v293.5h135l46.9-254.1L483,227.5z"/>
<path class="st9" d="M243.7,326.9l33.7-57.5l-67-122.8L243.7,326.9z"/>
<path class="st10" d="M302.2,228.1l-24.8,41.3l-67-122.8L302.2,228.1z"/>
<path class="st9" d="M508.2,269.4l32.4,57.5l33.3-180.3L508.2,269.4z"/>
<path class="st10" d="M483,227.5l25.3,41.9L574,146.6L483,227.5z"/>
<path class="st11" d="M374.2,238.4c0,13.4,3.4,25.7,8.9,32.4c5.5,6.7,12.2,6.7,17.7,0s8.9-19,8.9-32.4s-3.4-25.7-8.9-32.4
	s-12.2-6.7-17.7,0C377.5,212.7,374.2,225.1,374.2,238.4L374.2,238.4z"/>
<path class="st3" d="M376,223c0,4.6,3.8,8.4,8.4,8.4s8.4-3.8,8.4-8.4s-3.8-8.4-8.4-8.4S376,218.4,376,223L376,223z"/>
<polygon class="st12" points="220.1,46.8 545.5,46.8 700.4,201.8 384.3,517.8 65.1,201.8 "/>
<linearGradient id="SVGID_6_" gradientUnits="userSpaceOnUse" x1="966.9033" y1="449.6115" x2="950.9946" y2="1063.2439" gradientTransform="matrix(1 0 0 1 0 -488)">
	<stop  offset="0.1382" style="stop-color:#75FF97"/>
	<stop  offset="0.8852" style="stop-color:#39BF66"/>
</linearGradient>
<path class="st13" d="M1732.2,46.8H624.8L579.6,0.3H195.3L0,201.8l384.3,387.4l77.9-77.5l1270-0.4c99,1.3,180.2-97.3,186.6-215.5
	C1925.9,166.4,1841.3,46.2,1732.2,46.8L1732.2,46.8z M65.1,201.8l155-155h264.4h61l155,155l-316.2,316L65.1,201.8z"/>
<rect id="SVGID_4_" x="0.1" y="0.2" class="st14" width="1919.6" height="589.9"/>
<path class="st15" d="M222.6,170.7l1-3.1c3.1-10.2,14.3-16.4,25.6-13.3c5.1,2.1,9.2,5.1,11.3,10.2c4,7.2,3.2,16.1-2,22.5
	c-1,0-1,1-2,2.1c15.4,9.2,29.7,18.4,44,26.6c5.1,3.1,11.3,7.2,16.4,10.2c0.9,0.9,2.1,1.3,3.3,1c1.2-0.2,2.3-1,2.8-2.1l1-1
	c17.4-30.7,33.8-61.4,51.2-93.1c-7.4-3.2-12.2-10.4-12.3-18.4c0-6.2,2-11.3,6.1-15.3c8.2-8.2,20.5-7.2,28.7,0l1,1
	c8.2,10.2,5.1,22.5-8.2,31.7c4.1,8.2,8.2,16.4,13.3,23.5c12.3,22.5,24.6,45,36.9,66.5c3.1,5.1,5.1,6.1,9.2,3.1
	c19.4-11.3,37.9-23.5,57.3-34.8l3.1-2.1c-4.1-3.1-6.1-8.2-7.2-13.3c-1-11.3,8.2-20.5,18.4-21.5c9.2-1,17.4,5.1,20.5,14.3
	c0,3.1,1,4.1,1,5.1v7.2c-3.1,10.2-10.2,16.4-21.5,16.4c0,1-1,2.1-1,4.1L486.6,313c-1,5.1-3.1,6.1-8.2,6.1H287c-5.1,0-7.2-1-8.2-6.1
	c-9.2-30.7-18.4-61.4-26.6-93.2c-2-8.2-5.1-16.4-7.2-25.6c-7.8,0.1-15.1-3.8-19.4-10.2c-1-3.1-2.1-4.1-3.1-6.1L222.6,170.7
	L222.6,170.7z M383.3,338.6h90.1c8.2,0,15.4,6.1,15.4,14.3c0,7.2-5.1,14.3-12.3,15.4H293.2c-6.5-0.1-12.2-4.2-14.3-10.2
	c-2-6.1,0-13.3,5.1-16.4c3-2.1,6.6-3.1,10.2-3.1C323.9,337.5,353.6,338.6,383.3,338.6L383.3,338.6z"/>
<path class="st16" d="M382.8,91.2c5.4,0.1,10.5,2.3,14.3,6.1l1,1c8.2,10.2,5.1,22.5-8.2,31.7c4.1,8.2,8.2,16.4,13.3,23.5
	c12.3,22.5,24.6,45,36.9,66.5c3.1,5.1,5.1,6.1,9.2,3.1c19.5-11.3,37.9-23.5,57.3-34.8l3.1-2.1c-4.1-3.1-6.1-8.2-7.2-13.3
	c-1-11.3,8.2-20.5,18.4-21.5c9.2-1,17.4,5.1,20.5,14.3c0,1,1,2.1,1,3.1v7.2c-3.1,10.2-10.2,16.4-21.5,16.4c0,1-1,2.1-1,4.1
	l-33.8,114.7c-1,5.1-3.1,6.1-8.2,6.1h-95.2L382.8,91.2L382.8,91.2z M382.8,336.9h90.1c8.2,0,15.4,6.1,15.4,14.3
	c0,7.2-5.1,14.3-12.3,15.4h-92.1"/>
<text transform="matrix(1 0 0 1 770.0283 391.8389)" class="st12 st1 st17">领航版</text>
<polygon class="st3" points="203.9,-625.5 536.5,-625.5 694.9,-467.1 371.8,-144.1 45.6,-467.1 "/>
<path class="st18" d="M539-502.5L536.1-377L375-229.7L539-502.5z"/>
<path class="st18" d="M539-502.5L375-229.7l49.7-210.1L539-502.5z"/>
<path class="st19" d="M515-462.6l1.4,23.4l-19.7,6.9L515-462.6z"/>
<path class="st19" d="M515-462.6l-20,9.6l2.4,20.7L515-462.6z"/>
<path class="st18" d="M375-229.7L213.8-377.1L211-502.5L375-229.7z M325.3-440.6L375-230.5l-164-272L325.3-440.6z"/>
<path class="st19" d="M253.3-432.3l-19.7-6.9l1.4-23.4L253.3-432.3z"/>
<path class="st19" d="M253.3-432.3l2.4-20.7l-20.7-9.6L253.3-432.3z"/>
<path class="st20" d="M477-559.1l31.7,132.4L375-229.7L477-559.1z"/>
<path class="st21" d="M477-559.1L375-229.7L372.3-464L477-559.1z"/>
<path class="st21" d="M462.8-513.5l8.4,26.3l-22.4,18.9L462.8-513.5z"/>
<path class="st20" d="M462.8-513.5l-22.8,15l8.9,30L462.8-513.5z"/>
<path class="st22" d="M1019-394.6l2.3,9.5l-32.8,48.3l4-26.7L1019-394.6z"/>
<path class="st20" d="M375-229.7l-133.7-197L273-559.1L375-229.7z"/>
<path class="st21" d="M377.7-464L375-229.7L272.9-559.1L377.7-464z"/>
<path class="st21" d="M301.1-468.3l-22.4-18.9l8.4-26.3L301.1-468.3z"/>
<path class="st20" d="M301.1-468.3l8.9-30l-22.8-15L301.1-468.3z"/>
<path class="st20" d="M358.5-338.5L375-229.7l-133.7-197l9.3-38.6L358.5-338.5z"/>
<path class="st19" d="M375-600.4l-75.1,126.8L375-229.7V-600.4z"/>
<path class="st23" d="M375-600.4v370.6l75.7-241.1L375-600.4z"/>
<path class="st23" d="M375-539.8l-27.6,39.9l27.6,33.6V-539.8z"/>
<path class="st19" d="M375-539.8l26.1,39.9L375-466.2V-539.8z"/>
<linearGradient id="SVGID_7_" gradientUnits="userSpaceOnUse" x1="960.993" y1="1325.6227" x2="958.6703" y2="747.3" gradientTransform="matrix(1 0 0 -1 0 592)">
	<stop  offset="0" style="stop-color:#5DE6FF"/>
	<stop  offset="1" style="stop-color:#2996F7"/>
</linearGradient>
<path class="st24" d="M1749.3-625.5H617.6L571.3-673H178.6L-20.9-467.1L371.8-71.2l79.7-79.2l1297.8-0.4
	c101.2,1.3,184.2-99.5,190.7-220.2C1947.2-503.3,1860.7-626.1,1749.3-625.5L1749.3-625.5z M45.6-467.1L204-625.5h332.6L695-467.1
	l-323.1,323L45.6-467.1z"/>
<rect id="SVGID_3_" x="-20.8" y="-673.1" class="st6" width="1961.8" height="602.9"/>
<text transform="matrix(1 0 0 1 804.9842 -310.5142)" class="st0" style="font-family:'MicrosoftYaHeiUI'; font-size:270px;">高级版</text>
<polygon class="st3" points="183,751.8 515.6,751.8 673.9,910.1 350.9,1233.2 24.6,910.1 "/>
<linearGradient id="SVGID_8_" gradientUnits="userSpaceOnUse" x1="939.9313" y1="-105.5855" x2="937.6089" y2="-609.5855" gradientTransform="matrix(1 0 0 -1 0 592)">
	<stop  offset="0.1872" style="stop-color:#7DB3D3"/>
	<stop  offset="1" style="stop-color:#90A8CE"/>
</linearGradient>
<path class="st25" d="M1728.4,751.8H596.7l-46.3-47.5H157.7L-41.9,910.1L350.8,1306l79.7-79.2l1297.8-0.4
	c101.2,1.3,184.2-99.5,190.7-220.2C1926.3,873.9,1839.8,751.1,1728.4,751.8L1728.4,751.8z M24.6,910.1L183,751.8h332.6L674,910.2
	l-323.1,323L24.6,910.1z"/>
<rect id="SVGID_2_" x="-41.8" y="704.2" class="st6" width="1961.8" height="602.9"/>
<path class="st26" d="M180.4,907.2l118.6-17l53.3-107.4l52.9,107.6l118.5,17.5l-86.1,83.4l20.1,118.3l-106-56l-106.2,55.6l20.4-118
	L180.4,907.2z"/>
<polyline class="st27" points="437.7,991.3 457.8,1109.5 352,963.3 298.9,890.2 352.2,782.8 351.8,1053.5 245.6,1109.1 405.1,890.3 
	523.7,907.9 266,991.1 180.4,907.2 "/>
<g class="st5">
	
		<text transform="matrix(1 0 0 1 784.0442 1073.7646)" style="display:inline;fill:#F5F5F7; font-family:'MicrosoftYaHeiUI'; font-size:270px;">免费版</text>
</g>
</svg>
