<?xml version="1.0" encoding="utf-8"?>
<!-- Generator: Adobe Illustrator 23.0.0, SVG Export Plug-In . SVG Version: 6.00 Build 0)  -->
<svg version="1.1" id="图层_1" xmlns="http://www.w3.org/2000/svg" xmlns:xlink="http://www.w3.org/1999/xlink" x="0px" y="0px"
	 viewBox="0 0 1920 590" style="enable-background:new 0 0 1920 590;" xml:space="preserve">
<style type="text/css">
	.st0{display:none;fill:#FFFFFF;enable-background:new    ;}
	.st1{font-family:'SourceHanSansCN-Regular-GBpc-EUC-H';}
	.st2{font-size:320px;}
	.st3{display:none;fill:#FFFFFF;}
	.st4{display:none;fill:url(#SVGID_2_);}
	.st5{display:none;}
	.st6{display:none;fill:none;}
	.st7{display:none;fill:#A4D8E4;}
	.st8{display:none;fill:#95D3E8;}
	.st9{display:none;fill:#B5D3D8;}
	.st10{display:none;fill:#85C6D8;}
	.st11{display:none;fill:#F7F7F7;}
	.st12{fill:#FFFFFF;}
	.st13{fill:url(#SVGID_3_);}
	.st14{fill:none;}
	.st15{font-size:313.1293px;}
	.st16{display:none;fill:url(#SVGID_6_);}
	.st17{display:none;fill:#5FE878;}
	.st18{display:none;fill:#39BF7E;}
	.st19{fill:#29A7F7;}
	.st20{fill:#5FE1FF;}
	.st21{fill:#48C2FF;}
	.st22{fill:#3AB5DB;}
	.st23{fill:#36B7FF;}
</style>
<text transform="matrix(1 0 0 1 775.2886 400.9443)" class="st0 st1 st2">初级版</text>
<polygon class="st3" points="224.8,62.6 557.3,62.6 715.7,221 392.7,544 66.4,221 "/>
<linearGradient id="SVGID_2_" gradientUnits="userSpaceOnUse" x1="984.6212" y1="78.822" x2="975.3307" y2="-464.6619" gradientTransform="matrix(1 0 0 -1 0 104)">
	<stop  offset="0.2217" style="stop-color:#25DDEA"/>
	<stop  offset="1" style="stop-color:#01B0DC"/>
</linearGradient>
<path class="st4" d="M1770.2,62.6H638.5l-46.3-47.5H199.4L-0.1,221l392.8,395.9l79.6-79.2l1297.8-0.4
	c101.2,1.3,184.2-99.5,190.7-220.2C1968.1,184.8,1881.6,62,1770.2,62.6L1770.2,62.6z"/>
<polygon class="st3" points="66.4,221 224.8,62.6 557.3,62.6 715.7,221 392.7,544 "/>
<path class="st5" d="M66.4,221"/>
<rect id="SVGID_1_" y="15" class="st6" width="1961.8" height="602.9"/>
<path class="st3" d="M880.3,438.6"/>
<path class="st7" d="M483,227.5L392.2,107l-90,121.1l-91.8-81.5l46.9,254.1H527l46.9-254.1L483,227.5z"/>
<path class="st8" d="M483,227.5L392.2,107l-0.2,0.2v293.5h135l46.9-254.1L483,227.5z"/>
<path class="st9" d="M243.7,326.9l33.7-57.5l-67-122.8L243.7,326.9z"/>
<path class="st10" d="M302.2,228.1l-24.8,41.3l-67-122.8L302.2,228.1z"/>
<path class="st9" d="M508.2,269.4l32.4,57.5l33.3-180.3L508.2,269.4z"/>
<path class="st10" d="M483,227.5l25.3,41.9L574,146.6L483,227.5z"/>
<path class="st11" d="M374.2,238.4c0,13.4,3.4,25.7,8.9,32.4c5.5,6.7,12.2,6.7,17.7,0s8.9-19,8.9-32.4s-3.4-25.7-8.9-32.4
	s-12.2-6.7-17.7,0C377.5,212.7,374.2,225.1,374.2,238.4L374.2,238.4z"/>
<path class="st3" d="M376,223c0,4.6,3.8,8.4,8.4,8.4s8.4-3.8,8.4-8.4s-3.8-8.4-8.4-8.4S376,218.4,376,223L376,223z"/>
<polygon class="st12" points="220.1,46.8 545.5,46.8 700.4,201.8 384.3,517.8 65.1,201.8 "/>
<linearGradient id="SVGID_3_" gradientUnits="userSpaceOnUse" x1="959.6081" y1="633.0323" x2="959.6081" y2="57.0323" gradientTransform="matrix(1 0 0 -1 0 592)">
	<stop  offset="0" style="stop-color:#5DE6FF"/>
	<stop  offset="1" style="stop-color:#2996F7"/>
</linearGradient>
<path class="st13" d="M1732.2,46.8H624.8L579.6,0.3H195.3L0,201.8l384.3,387.4l77.9-77.5l1270-0.4c99,1.3,180.2-97.3,186.6-215.5
	C1925.9,166.4,1841.3,46.2,1732.2,46.8L1732.2,46.8z M65.1,201.8l155-155h264.4h61l155,155l-316.2,316L65.1,201.8z"/>
<rect id="SVGID_4_" x="0.1" y="0.2" class="st14" width="1919.6" height="589.9"/>
<text transform="matrix(1 0 0 1 770.0283 391.8389)" class="st12 st1 st15">旗舰版</text>
<polygon class="st3" points="3745.8,46.8 4071.2,46.8 4226.1,201.8 3910,517.8 3590.8,201.8 "/>
<linearGradient id="SVGID_6_" gradientUnits="userSpaceOnUse" x1="4492.603" y1="142.3879" x2="4476.6948" y2="-471.2445" gradientTransform="matrix(1 0 0 -1 0 104)">
	<stop  offset="0.1382" style="stop-color:#75FF97"/>
	<stop  offset="0.8852" style="stop-color:#39BF66"/>
</linearGradient>
<path class="st16" d="M5257.9,46.8H4150.5l-45.2-46.5H3721l-195.3,201.5L3910,589.2l77.9-77.5l1270-0.4
	c99,1.3,180.2-97.3,186.6-215.5C5451.6,166.4,5367,46.2,5257.9,46.8L5257.9,46.8z M3590.8,201.8l155-155h264.4h61l155,155
	l-316.2,316L3590.8,201.8z"/>
<rect id="SVGID_5_" x="3525.8" y="0.2" class="st6" width="1919.6" height="589.9"/>
<path class="st17" d="M3748.3,170.7l1-3.1c3.1-10.2,14.3-16.4,25.6-13.3c5.1,2.1,9.2,5.1,11.3,10.2c4,7.2,3.2,16.1-2,22.5
	c-1,0-1,1-2,2.1c15.4,9.2,29.7,18.4,44,26.6c5.1,3.1,11.3,7.2,16.4,10.2c0.9,0.9,2.1,1.3,3.3,1c1.2-0.2,2.3-1,2.8-2.1l1-1
	c17.4-30.7,33.8-61.4,51.2-93.1c-7.4-3.2-12.2-10.4-12.3-18.4c0-6.2,2-11.3,6.1-15.3c8.2-8.2,20.5-7.2,28.7,0l1,1
	c8.2,10.2,5.1,22.5-8.2,31.7c4.1,8.2,8.2,16.4,13.3,23.5c12.3,22.5,24.6,45,36.9,66.5c3.1,5.1,5.1,6.1,9.2,3.1
	c19.4-11.3,37.9-23.5,57.3-34.8l3.1-2.1c-4.1-3.1-6.1-8.2-7.2-13.3c-1-11.3,8.2-20.5,18.4-21.5c9.2-1,17.4,5.1,20.5,14.3
	c0,3.1,1,4.1,1,5.1v7.2c-3.1,10.2-10.2,16.4-21.5,16.4c0,1-1,2.1-1,4.1L4012.3,313c-1,5.1-3.1,6.1-8.2,6.1h-191.4
	c-5.1,0-7.2-1-8.2-6.1c-9.2-30.7-18.4-61.4-26.6-93.2c-2-8.2-5.1-16.4-7.2-25.6c-7.8,0.1-15.1-3.8-19.4-10.2c-1-3.1-2.1-4.1-3.1-6.1
	L3748.3,170.7L3748.3,170.7z M3909,338.6h90.1c8.2,0,15.4,6.1,15.4,14.3c0,7.2-5.1,14.3-12.3,15.4h-183.3
	c-6.5-0.1-12.2-4.2-14.3-10.2c-2-6.1,0-13.3,5.1-16.4c3-2.1,6.6-3.1,10.2-3.1C3849.6,337.5,3879.3,338.6,3909,338.6L3909,338.6z"/>
<path class="st18" d="M3908.5,91.2c5.4,0.1,10.5,2.3,14.3,6.1l1,1c8.2,10.2,5.1,22.5-8.2,31.7c4.1,8.2,8.2,16.4,13.3,23.5
	c12.3,22.5,24.6,45,36.9,66.5c3.1,5.1,5.1,6.1,9.2,3.1c19.5-11.3,37.9-23.5,57.3-34.8l3.1-2.1c-4.1-3.1-6.1-8.2-7.2-13.3
	c-1-11.3,8.2-20.5,18.4-21.5c9.2-1,17.4,5.1,20.5,14.3c0,1,1,2.1,1,3.1v7.2c-3.1,10.2-10.2,16.4-21.5,16.4c0,1-1,2.1-1,4.1
	l-33.8,114.7c-1,5.1-3.1,6.1-8.2,6.1h-95.2L3908.5,91.2L3908.5,91.2z M3908.5,336.9h90.1c8.2,0,15.4,6.1,15.4,14.3
	c0,7.2-5.1,14.3-12.3,15.4h-92.1"/>
<text transform="matrix(1 0 0 1 4295.7056 391.8389)" class="st0 st1 st15">专业版</text>
<g>
	<path class="st19" d="M530.6,168.9L528,282.1L382.8,414.9L530.6,168.9z"/>
	<path class="st19" d="M530.6,168.9l-147.9,246l44.8-189.4L530.6,168.9z"/>
	<path class="st20" d="M509,204.9l1.3,21.1l-17.8,6.2L509,204.9z"/>
	<path class="st20" d="M509,204.9l-18,8.7l2.2,18.7L509,204.9z"/>
	<path class="st19" d="M382.8,414.9L237.4,282l-2.5-113.1L382.8,414.9z M337.9,224.7l44.8,189.4L234.9,168.9L337.9,224.7z"/>
	<path class="st20" d="M273,232.2l-17.8-6.2l1.3-21.1L273,232.2z"/>
	<path class="st20" d="M273,232.2l2.2-18.7l-18.7-8.7L273,232.2z"/>
	<path class="st21" d="M474.7,117.9l28.6,119.4L382.8,414.9L474.7,117.9z"/>
	<path class="st22" d="M474.7,117.9l-92,297l-2.4-211.3L474.7,117.9z"/>
	<path class="st22" d="M461.9,159l7.6,23.7l-20.2,17L461.9,159z"/>
	<path class="st21" d="M461.9,159l-20.6,13.5l8,27.1L461.9,159z"/>
	<path class="st21" d="M382.8,414.9L262.2,237.2l28.6-119.4L382.8,414.9z"/>
	<path class="st22" d="M385.2,203.6l-2.4,211.3l-92.1-297L385.2,203.6z"/>
	<path class="st22" d="M316.1,199.7l-20.2-17l7.6-23.7L316.1,199.7z"/>
	<path class="st21" d="M316.1,199.7l8-27.1l-20.6-13.5L316.1,199.7z"/>
	<path class="st21" d="M367.9,316.8l14.9,98.1L262.2,237.2l8.4-34.8L367.9,316.8z"/>
	<path class="st20" d="M382.8,80.6L315,195l67.7,219.9L382.8,80.6L382.8,80.6z"/>
	<path class="st23" d="M382.8,80.6v334.2L451,197.4L382.8,80.6z"/>
	<path class="st23" d="M382.8,135.3l-24.9,36l24.9,30.3V135.3z"/>
	<path class="st20" d="M382.8,135.3l23.5,36l-23.5,30.4V135.3z"/>
</g>
</svg>
